<svg xmlns="http://www.w3.org/2000/svg" viewBox="0 0 964.27 233.45"><defs><style>.cls-1,.cls-2{fill:#004d78;}.cls-2{fill-rule:evenodd;}</style></defs><title>OAG-Official-Lockup-Blue</title><g id="Layer_2" data-name="Layer 2"><g id="Layer_1-2" data-name="Layer 1"><path class="cls-1" d="M326.25,130l.48-3.68,6-.72a.58.58,0,0,0,.36-.95L308.45,92,298,102.73v22c0,.6.24.6.6.72l9.14.95.35,3.68H281.62l.36-3.68,9.14-.95c.35-.12.59-.12.59-.72V61.18c0-.59-.12-.59-.59-.71L282,59.52l-.36-3.68h26.47l-.35,3.68-9.14.95c-.36.12-.6.12-.6.71V96.67l34.19-35.73c.12-.11.24-.47,0-.47l-8.55-.95-.35-3.68h24.45l-.36,3.68-7.24.83a4.13,4.13,0,0,0-1.54.95L312.37,88,341,124.68a2.09,2.09,0,0,0,1.43.84l6.17.83.35,3.68Z"/><path class="cls-1" d="M414.21,130H360l.35-3.68,9.26-.95c.36-.12.48-.12.48-.72V61.18c0-.59-.12-.59-.48-.71l-9.26-.95L360,55.84h54.12V75.9h-3.91L408,63c-.59-2.85-1.43-3.32-26.47-3.32h-5.22v30.5h7.59c11.87,0,12.11-.11,12.58-1.66l2.62-7.83H402l-2.25,22.91h-2.85l-.71-7.72c-.12-1.42-.24-1.9-12.35-1.9h-7.47v32.29h2.73c28.48,0,29.2-.6,29.91-3.33l3.08-12.7h4.28Z"/><path class="cls-1" d="M503.83,59.52l-10.68.95c-.36,0-.6.12-.6.71v69.44h-4.86L441.63,62.37h-.47v62.31c0,.6.23.6.59.72l10.33.95.35,3.68H424.78l.35-3.68,10.69-.95c.35-.12.59-.12.59-.72V62c0-.59-.12-.59-.59-.71l-9.38-1.78-.36-3.68h18.16l43.45,63.86h.12V61.18c0-.59-.24-.71-.6-.71l-10.33-.95-.35-3.68h27.66Z"/><path class="cls-1" d="M566,99.64a101.94,101.94,0,0,1-10.8-.59v25.63c0,.6.24.72.59.72l11.51.95.36,3.68H538.85l.35-3.68,9.14-.95c.36,0,.6-.12.6-.72V61.18c0-.59-.12-.71-.48-.71l-9.26-.95-.35-3.68h24.69c20.77,0,30.26,9,30.26,21.25C593.8,90.38,581.7,99.64,566,99.64Zm-3.32-39.88-7.48.23V95a64.48,64.48,0,0,0,11,1.19c13.53,0,20.89-7,20.89-18.28C587.16,65.93,578.49,59.28,562.71,59.76Z"/><path class="cls-1" d="M635.47,130l.36-3.68,9-.72a.67.67,0,0,0,.71-.83l-7.48-22H609.71l-7.48,21.84c-.11.48,0,.84.36.84l8.67.83.35,3.68h-23.5l.36-3.68,7.95-.83c.35,0,.59-.24.83-.84l23-65.16V56.79l8-2.37,24,70.15a1.15,1.15,0,0,0,1.06,1l8.19.83.36,3.68Zm-11-68.37h-.59L611.26,98.33h25.28Z"/><path class="cls-1" d="M702.77,130l.24-3.68,8.43-.72a.62.62,0,0,0,.47-1.06L692,95.13h-.12L672,124.45a.52.52,0,0,0,.36.83l8.54,1.07.48,3.68H656.6l.24-3.68,7.83-.83a2,2,0,0,0,1.31-.84l23-32.52L667.16,61.3a2,2,0,0,0-1.42-.95l-7.36-.83-.48-3.68h25.64l-.23,3.68-8.55.71a.63.63,0,0,0-.48,1.07L692.8,88.36h.12L711.2,61.18a.52.52,0,0,0-.36-.83l-8.78-.83-.47-3.68h24.8l-.23,3.68-7.72.83a2,2,0,0,0-1.31.83L695.65,91.45l23.74,33.12a2,2,0,0,0,1.42,1l7.48.83.48,3.68Z"/><path class="cls-1" d="M794.29,77.68,792.15,63c-.47-3-.59-3.32-19.94-3.32h-2.13v65c0,.6.23.6.59.72l10.32.95.36,3.68H752.51l.35-3.68,10.33-.95c.36-.12.59-.12.59-.72v-65h-2.37c-19.23,0-19,.59-19.58,3.32l-3.09,14.48h-4l2.14-21.6h61.25V77.68Z"/><path class="cls-1" d="M842.72,131.69c-21.25,0-37.39-15-37.39-38.22,0-20.89,14.6-39.29,38-39.29,21,0,37.27,14.95,37.27,38.34C880.58,113.29,866,131.69,842.72,131.69Zm0-73.59c-16.14,0-30.51,12.81-30.51,34.06,0,23.27,15,35.73,31,35.73,16.26,0,30.63-12.7,30.63-34.07C873.82,70.68,858.62,58.1,842.72,58.1Z"/><path class="cls-1" d="M963.91,59.52l-10.68.95c-.36,0-.59.12-.59.71v69.44h-4.87L901.71,62.37h-.47v62.31c0,.6.24.6.59.72l10.33.95.36,3.68H884.86l.36-3.68,10.68-.95c.35-.12.59-.12.59-.72V62c0-.59-.12-.59-.59-.71l-9.38-1.78-.36-3.68h18.17l43.44,63.86h.12V61.18c0-.59-.24-.71-.6-.71L937,59.52l-.36-3.68h27.66Z"/><path class="cls-1" d="M293.5,183.64l.13-1.48,2.07-.34c1.53-.3,1.44-.89.3-4.41l-1.06-3.3h-8.73l-1,3.26c-1.19,3.22-1.31,4.2.09,4.45l1.69.34.13,1.48h-8.86l.13-1.48,1.18-.3c1.78-.42,2.34-1.14,5-8.52l4.92-13.77V158l3.82-1.78,8,24.42a1.5,1.5,0,0,0,1.35,1l2.29.47.13,1.48Zm-2.63-22.72h-.25l-3.82,11.41h7.59Z"/><path class="cls-1" d="M329.91,165.46l-1-4.11c-.51-1.83-.93-2.46-6.53-2.55h-.08v22.47c0,.38.29.55,1.48.68l2.54.21.13,1.48H314.15l.12-1.48,2.55-.21c1.1-.13,1.48-.38,1.48-.77V158.8h-.08c-5.3,0-6.15.26-6.7,2.12l-1.19,4.54h-2.12l.72-8.31h23v8.31Z"/><path class="cls-1" d="M359.63,165.46l-1-4.11c-.51-1.83-.94-2.46-6.53-2.55H352v22.47c0,.38.3.55,1.49.68l2.54.21.13,1.48H343.86l.13-1.48,2.54-.21c1.11-.13,1.49-.38,1.49-.77V158.8h-.09c-5.3,0-6.14.26-6.69,2.12l-1.19,4.54h-2.12l.72-8.31h23v8.31Z"/><path class="cls-1" d="M382.57,184.32c-7.84,0-13.78-5.59-13.78-13.65a14,14,0,0,1,13.9-14.07c7.85,0,13.78,5.59,13.78,13.69A14,14,0,0,1,382.57,184.32Zm0-26.11c-5,0-9.25,4.32-9.25,11.95,0,7.8,4.37,12.59,9.41,12.59s9.29-4.32,9.29-12S387.61,158.21,382.53,158.21Z"/><path class="cls-1" d="M423.9,179.4c1.44,2,2,2.29,2.76,2.46l1.31.3.17,1.48h-6.83l-1.61-2.92-5.08-8.9-3.39.12v9.33c0,.38.29.55,1.48.68l2.08.21.12,1.48H403.85l.13-1.48,1.74-.21c1.1-.13,1.48-.38,1.48-.77V159.52c0-.38-.25-.51-1.48-.68l-1.74-.21-.13-1.48h11c6.7,0,9.71,2.63,9.71,6.53,0,3.64-2.5,6.1-6.07,7.33Zm-10-20.51c-.64,0-2.71.08-2.71.08v11.11l3,.25c3.56-.29,5.89-2.12,5.89-5.85S418.05,158.63,413.94,158.89Z"/><path class="cls-1" d="M461.8,158.63l-2,.34c-1.74.3-1.91.77-1.91,8.48V184h-2.16L439,161.18h-.21v12.16c0,7.72.17,8.18,1.87,8.48l2,.34.13,1.48H433.1l.13-1.48,2-.34c1.74-.3,1.91-.76,1.91-8.48V162.91c0-2.41-.51-3.43-1.82-4l-2-.3-.12-1.48h7.67L456,177.88h.21V167.45c0-7.71-.12-8.18-1.86-8.48l-2-.34-.12-1.48h9.75Z"/><path class="cls-1" d="M489.53,183.64H468.75l.13-1.48,1.74-.21c1.1-.13,1.48-.38,1.48-.77V159.52c0-.38-.25-.51-1.48-.68l-1.74-.21-.13-1.48h20.82V165h-2l-1-4.11c-.56-1.95-1-2.12-8.86-2.12h-1.53v10.56h1.15c3.26,0,3.85-.09,4.15-.93l1-2.84h1.66l-.89,9.11h-1.61l-.34-2.71c-.09-.77-.38-1-4.07-1h-1v11h1.19c8.48,0,9-.25,9.7-2.12l1-3.9h2.29Z"/><path class="cls-1" d="M521.45,158.63l-.6.17a6.3,6.3,0,0,0-3.94,3.14l-6,10.09v9.24c0,.38.3.55,1.49.68l2.54.21.13,1.48H502.71l.13-1.48,2.58-.21c1.11-.13,1.49-.38,1.49-.77v-8.56l-7.63-12.12A3.88,3.88,0,0,0,497,159l-1.36-.34-.12-1.48H506.4l-.13,1.48-1.69.26c-1.32.21-1.15,1.35.76,4.49l4.24,7h.21l4.75-8.36c1.27-2,1.06-2.88-.38-3.18l-1-.21-.13-1.48h8.56Z"/><path class="cls-1" d="M566.89,173.38l-1.82.22c-1.1.12-1.48.38-1.48.76v6.36l2.54.25.08,1.15a39.14,39.14,0,0,1-11.87,2.16c-8.3,0-14.79-4.92-14.79-13.61,0-8.94,7.12-14.11,15.35-14.11a19.66,19.66,0,0,1,5.76.84l3.39-.63v8.69h-2L560.91,160a11,11,0,0,0-6.35-1.69c-6,0-10.52,5-10.52,11.78,0,7.38,3.78,12.46,10.43,12.46a13,13,0,0,0,5.17-1.06v-7.25c0-.42-.29-.55-1.48-.67l-2.16-.22-.13-1.48H567Z"/><path class="cls-1" d="M594.15,183.64H573.38l.13-1.48,1.74-.21c1.1-.13,1.48-.38,1.48-.77V159.52c0-.38-.26-.51-1.48-.68l-1.74-.21-.13-1.48h20.81V165h-2l-1-4.11c-.55-1.95-1-2.12-8.86-2.12h-1.52v10.56h1.14c3.26,0,3.86-.09,4.15-.93l1-2.84h1.65l-.89,9.11h-1.61l-.34-2.71c-.08-.77-.38-1-4.07-1h-1v11h1.18c8.48,0,9-.25,9.71-2.12l1-3.9H595Z"/><path class="cls-1" d="M630.86,158.63l-2,.34c-1.74.3-1.91.77-1.91,8.48V184H624.8l-16.74-22.84h-.21v12.16c0,7.72.17,8.18,1.86,8.48l2,.34.12,1.48h-9.7l.12-1.48,2-.34c1.74-.3,1.91-.76,1.91-8.48V162.91c0-2.41-.51-3.43-1.82-4l-2-.3-.13-1.48h7.67l15.14,20.73h.21V167.45c0-7.71-.13-8.18-1.87-8.48l-2-.34-.13-1.48H631Z"/><path class="cls-1" d="M658.59,183.64H637.82l.13-1.48,1.73-.21c1.11-.13,1.49-.38,1.49-.77V159.52c0-.38-.26-.51-1.49-.68l-1.73-.21-.13-1.48h20.81V165h-2l-1-4.11c-.55-1.95-1-2.12-8.86-2.12h-1.53v10.56h1.15c3.26,0,3.86-.09,4.15-.93l1-2.84h1.65l-.89,9.11h-1.61l-.34-2.71c-.08-.77-.38-1-4.07-1h-1v11h1.19c8.48,0,9-.25,9.71-2.12l1-3.9h2.28Z"/><path class="cls-1" d="M686.74,179.4c1.44,2,2,2.29,2.75,2.46l1.32.3.17,1.48h-6.83l-1.61-2.92-5.08-8.9-3.4.12v9.33c0,.38.3.55,1.49.68l2.07.21.13,1.48H666.69l.13-1.48,1.73-.21c1.11-.13,1.49-.38,1.49-.77V159.52c0-.38-.26-.51-1.49-.68l-1.73-.21-.13-1.48h11c6.7,0,9.7,2.63,9.7,6.53,0,3.64-2.5,6.1-6.06,7.33Zm-10-20.51c-.64,0-2.72.08-2.72.08v11.11l3,.25c3.56-.29,5.9-2.12,5.9-5.85S680.89,158.63,676.78,158.89Z"/><path class="cls-1" d="M708.87,183.64l.12-1.48,2.08-.34c1.53-.3,1.44-.89.3-4.41l-1.06-3.3h-8.73l-1,3.26c-1.19,3.22-1.31,4.2.08,4.45l1.7.34.13,1.48h-8.86l.13-1.48,1.18-.3c1.78-.42,2.33-1.14,5-8.52l4.92-13.77V158l3.81-1.78,8,24.42a1.52,1.52,0,0,0,1.36,1l2.29.47.13,1.48Zm-2.63-22.72H706l-3.82,11.41h7.59Z"/><path class="cls-1" d="M745.28,183.64H725.15l.13-1.48L727,182c1.11-.13,1.49-.38,1.49-.77V159.52c0-.38-.26-.51-1.49-.68l-1.73-.21-.13-1.48h11.1l-.12,1.48-2.12.21c-1.1.13-1.49.39-1.49.77V182h1.32c7.63,0,8.35-.25,8.94-2.12l1.23-4.7h2.21Z"/><path class="cls-1" d="M774.28,184.28c-4.41,0-6.44-3.48-6.44-8.31,0-5.68,4.19-12,9.41-12,4.41,0,6.44,3.48,6.44,8.31C783.69,178,779.5,184.28,774.28,184.28Zm3-18.91c-2.88,0-5,5.17-5.6,7.42a19,19,0,0,0-.55,4.37c0,2.63,1,5.72,3.18,5.72,3.05,0,5.05-5.38,5.6-7.71a23.37,23.37,0,0,0,.51-4.46C780.39,168.09,779.45,165.37,777.25,165.37Z"/><path class="cls-1" d="M803.45,159.9c-1.44,0-2.38-1.27-2.72-3l-3.43.59a27.85,27.85,0,0,0-1.82,7.16h4.83l.17,2H795.1l-2.29,12.12c-1,5.51-2.55,11.19-4.45,13.23a6.79,6.79,0,0,1-4.84,2c-1.82,0-3.3-1.06-3.3-2.67a2.13,2.13,0,0,1,2.12-2.33c1.52,0,2.37,1.36,2.54,3l2.33-1a57.5,57.5,0,0,0,1.91-8L792,166.86l-3.85-.17.12-1.23,4.12-1c.46-2.54,1.56-5.76,3.39-7.58a7.43,7.43,0,0,1,5.63-2.38c2.55,0,4.07,1.53,4.07,3A2.17,2.17,0,0,1,803.45,159.9Z"/><path class="cls-1" d="M842.53,165.46l-1-4.11c-.51-1.83-.94-2.46-6.53-2.55H835v22.47c0,.38.29.55,1.48.68l2.54.21.13,1.48H826.76l.13-1.48,2.54-.21c1.11-.13,1.49-.38,1.49-.77V158.8h-.09c-5.3,0-6.14.26-6.69,2.12L823,165.46h-2.12l.72-8.31h23v8.31Z"/><path class="cls-1" d="M872.25,183.64H851.48l.13-1.48,1.74-.21c1.1-.13,1.48-.38,1.48-.77V159.52c0-.38-.26-.51-1.48-.68l-1.74-.21-.13-1.48h20.81V165h-2l-1-4.11c-.55-1.95-1-2.12-8.86-2.12h-1.52v10.56H860c3.26,0,3.86-.09,4.15-.93l1-2.84h1.65l-.89,9.11h-1.61l-.34-2.71c-.08-.77-.38-1-4.07-1h-1v11H860c8.48,0,9-.25,9.71-2.12l1-3.9h2.29Z"/><path class="cls-1" d="M894.13,183.64l.12-1.48,1.74-.26c1.78-.25,1.06-1.31-1.06-4.49l-3.69-5.59H891l-4.53,7c-1.49,1.95-1.32,2.88.08,3.13l1.4.26.13,1.48h-9.37l.13-1.48,1.52-.34c1.36-.3,2.12-1.14,3.48-3l6.14-8.43-7.2-10.3a2.83,2.83,0,0,0-1.48-1l-2-.47-.13-1.48h11.11l-.13,1.48-1.65.26c-1.91.29-1.15,1.31.93,4.53l3,4.54h.21l3.9-5.94c1.32-2,1.27-2.88-.08-3.13l-1.44-.26-.13-1.48h9.28l-.12,1.48-1.49.34c-1.35.3-2.24,1.15-3.56,3l-5.3,7.42,7.93,11.32a2.91,2.91,0,0,0,1.48,1l2,.47.12,1.48Z"/><path class="cls-1" d="M923.46,183.64l.13-1.48,2.08-.34c1.52-.3,1.44-.89.29-4.41l-1.05-3.3h-8.74l-1,3.26c-1.19,3.22-1.32,4.2.08,4.45l1.7.34.12,1.48H908.2l.13-1.48,1.19-.3c1.78-.42,2.33-1.14,5-8.52l4.91-13.77V158l3.82-1.78,8,24.42a1.5,1.5,0,0,0,1.36,1l2.29.47.12,1.48Zm-2.62-22.72h-.26l-3.81,11.41h7.58Z"/><path class="cls-1" d="M948.52,184.28A21.38,21.38,0,0,1,941,183l-.59-7.55h1.78l1.91,5.81a12.71,12.71,0,0,0,5.17,1.23c3.65,0,5.51-2.42,5.51-4.75,0-3.77-3-4.87-6.53-6.19-3.77-1.48-7.33-3.05-7.33-7.76,0-3.51,2.63-7.16,8.82-7.24a21.8,21.8,0,0,1,5.08.46l2.21-.59v8.43h-1.78l-1.32-5.42a12.63,12.63,0,0,0-4.79-1c-3.18,0-4.7,2-4.7,4.07,0,3.52,3,4.54,6.36,5.85,3.94,1.53,7.63,3.14,7.63,8C958.44,180.38,954.79,184.19,948.52,184.28Z"/><path class="cls-1" d="M43.56,116.73a73.17,73.17,0,1,1,73.17,73.16A73.25,73.25,0,0,1,43.56,116.73Zm-3.74,0a76.91,76.91,0,1,0,76.91-76.91A77,77,0,0,0,39.82,116.73Z"/><path class="cls-1" d="M46.28,159.56l-.94.66.33.48a10.7,10.7,0,0,1,.69,1.06c.51,1,.21,1.22-.61,1.8l-11.36,7.95c-.32.23-.66.46-1,.66s-.86-.06-1.14-.47c-1.95-2.79,1.16-6.18,2.32-7.29l-.57-.82L28.39,168l9.71,13.86,6-3.76-.56-.8c-2.69,1.35-6.08,2-7.65-.27-.28-.41-.41-.95,0-1.24s.64-.48,1-.7L48,167.29l.12-.09a2.77,2.77,0,0,1,.85-.45l0,0a.88.88,0,0,1,.94.14c.46.53.94,1.08,1.37,1.67l.94-.66Z"/><path class="cls-1" d="M27.21,159.2l12.34-4.74.69-.21.68-.21c.43-.13.82.12,1,.69l.56,1.46,1.07-.41-3.48-9-1.06.41c.15.42.44,1.31.54,1.65.25.92-.68,1.27-1.36,1.54l-5.69,2.18-.14,0-.06-.14-2.5-6.52-.05-.14.14-.06,5.22-2,.28-.12c.68-.29,1.71-.72,2.13.06.22.38.61,1.25.78,1.65l1.06-.41-3.45-9-1.06.41a15.77,15.77,0,0,1,.55,1.81v.06h0v0a.83.83,0,0,1-.51.9l-1.47.62-11.8,4.53-.22.08c-.55.23-1.39.58-1.85-.08v0h0l-.74-1.71-1.07.41,3.44,9,1.06-.41v0c-.38-.95-.7-1.88-.49-2.33a.87.87,0,0,1,.33-.33l.11-.08h0a4.82,4.82,0,0,1,.74-.31l.25-.1,5.06-1.94.15-.06.06.15,2.5,6.51.05.15-.14.06-5.22,2a3,3,0,0,1-1.5.3h-.06A5.18,5.18,0,0,1,23,153.35v0l-1.06.41,3.47,9,1.07-.41a5.37,5.37,0,0,0-.21-.56,5.45,5.45,0,0,1-.39-1.38c-.05-.71.64-1,1.15-1.15Z"/><path class="cls-1" d="M33.92,117.66l-7,.58,0,1c3.84.58,6.17,1.77,6.69,6a13.63,13.63,0,0,1,.07,1.42c0,1.38-.65,1.46-1.76,1.59l-.14,0-6,.73-.14,0,0-.15c-.39-2.51,1-4.28,3.64-4.77l-.13-1.1-9.15,1.23.13,1c2.77,0,4.29,1.31,4.38,3.76v.14l-.14,0-5.14.63-.15,0a3.45,3.45,0,0,1-1.32,0h0a1.07,1.07,0,0,1-.69-.39h0a4.33,4.33,0,0,1-.55-1.87c-.52-4.27,1.14-5.79,4.84-7.35l-.12-1-6.75,1,2.1,17.09,1.13-.14v-.12a8.42,8.42,0,0,1-.1-1.94.75.75,0,0,1,.49-.68l0,0a1.1,1.1,0,0,1,.58-.18h.09l13.9-1.7.17,0a2.57,2.57,0,0,1,.83,0h0c.9.1,1,1.23,1.08,2.06,0,.18,0,.35.06.49l1.14-.14Z"/><path class="cls-1" d="M35.61,97.07l1.12.24,1.83-8.61-1.12-.24c-.42,1.61-1,1.77-2.63,2.06l-17.61,3-.36,1.71,12.93,8.72.09.06c1.54,1.06,3.44,2.38,3.32,4.44l1.14.24,1.49-7-1.12-.23a3,3,0,0,1-1.08,1.89,1.86,1.86,0,0,1-1.46.23,5.69,5.69,0,0,1-1.95-1l-.57-.37-.09,0,0-.11,1.38-6.5,0-.1.11,0L34.33,95l.13,0a1.06,1.06,0,0,1,1.18.3c.28.38.13,1.06,0,1.61C35.64,96.94,35.62,97,35.61,97.07Zm-6.17-1.15-1.09,5.14-.05.23-.19-.13-6.12-4-.34-.23.4-.06,7.22-1.1.22,0Z"/><path class="cls-1" d="M43.34,76.78c-.08.17-.17.35-.25.53a10.73,10.73,0,0,1-.57,1.12c-.62.95-1,.79-1.86.37L28.08,72.94c-.35-.17-.72-.34-1.06-.53s-.37-.77-.16-1.22c1.43-3.09,5.93-2.08,7.47-1.63l.43-.91L28.15,66,21,81.31l6.28,3.37.41-.88C25.18,82.13,23,79.51,24.1,77c.21-.45.62-.83,1-.66s.74.31,1.09.48l12.3,5.73.13.06a2.62,2.62,0,0,1,.82.51l0,0a.88.88,0,0,1,.34.89c-.23.66-.46,1.34-.76,2l1,.49,4.31-9.26Z"/><path class="cls-1" d="M53.74,61.66l-.36.46a9.16,9.16,0,0,1-.79,1c-.8.8-1.1.58-1.9,0L39.61,54.73c-.32-.24-.64-.48-.93-.73s-.2-.84.09-1.24c2-2.72,6.24-.8,7.66,0l.6-.8-5.91-4L30.94,61.45l5.44,4.6.59-.78c-2.11-2.15-3.75-5.18-2.1-7.37.3-.39.77-.68,1.15-.43s.65.46,1,.7l10.84,8.17.11.08a2.61,2.61,0,0,1,.7.67l0,0a.89.89,0,0,1,.15.94,21.33,21.33,0,0,1-1.17,1.81l.92.69,6.14-8.15Z"/><path class="cls-1" d="M66.89,38.73c-2.3-2.29-4.43-3.52-6.71-3.87A9,9,0,0,0,52.9,37a9.6,9.6,0,0,0-3.44,6.42A10.5,10.5,0,0,0,51.89,51a11.16,11.16,0,0,0,6.55,3.81,8.86,8.86,0,0,0,7.11-1.92,9.05,9.05,0,0,0,3.65-6.49A10.3,10.3,0,0,0,66.89,38.73Zm-1.5,12.93a4.27,4.27,0,0,1-5.07.42A18.27,18.27,0,0,1,55.74,48C54,45.81,51.94,43,52.2,40.42a4,4,0,0,1,1.52-2.68c2.42-2,5.68-.56,9.41,4a21.2,21.2,0,0,1,1.8,2.56C66.2,46.57,67.93,49.6,65.39,51.66Z"/><path class="cls-1" d="M91.15,35.28a5.71,5.71,0,0,0-.44-1.36l-.92.4c.25.73.67,2,.22,2.66a.93.93,0,0,1-.8.38h-.06a1.34,1.34,0,0,1-.39-.23,7.49,7.49,0,0,1-1.18-1.39l0,0-1.09-1.41a4.7,4.7,0,0,0-5.08-2.11l-.12,0-.06-.11,0,0-.06-.13.13-.07c1.45-.78,4.64-3,3-6.58a4.59,4.59,0,0,0-3.16-2.6,7.18,7.18,0,0,0-4.26.73l-1.81.74L65.8,28.23l.46,1.05.63-.28.35-.16a1.74,1.74,0,0,1,1.46-.2c.38.15.71.9,1,1.72,0,.11.08.2.11.27S75,42.23,75,42.24l0,0c.39,1,.61,1.56-.63,2.15-.37.19-.77.37-1.16.55l.46,1,9.07-4-.46-1-.47.21-.41.16a6.45,6.45,0,0,1-.87.32h0c-.56.22-.85.13-1.25-.39h0c-.15-.27-.29-.58-.41-.85l-2.56-5.76-.07-.14.15-.07.76-.33c.35-.16.71-.32,1.09-.46,2.47-.91,3.32.69,4.38,2.71l.77,1.46a4.49,4.49,0,0,0,2,2.18,3.79,3.79,0,0,0,3.09-.08C89.81,39.32,91.82,38,91.15,35.28ZM77.87,32.46l-.48.24a15.2,15.2,0,0,1-1.41.66l-.14.06-.06-.14L73.47,28.1c-.19-.43-.54-1.22-.15-1.79h0v0a5.23,5.23,0,0,1,1.53-.9l.18-.07a4,4,0,0,1,3.07-.39A3.66,3.66,0,0,1,80,27.05C81.13,29.57,80.49,31.19,77.87,32.46Z"/><path class="cls-1" d="M108.89,20.73a12.62,12.62,0,0,1-.22-2.38c.07-1.57,1-2,2.28-2.43l-.18-1.15-7,1.1L104,17c2.09-.27,3,.52,3.38,2.86l1.25,7.85.07.44-.33-.3L96.42,17l-6.28,1,.18,1.13a3.43,3.43,0,0,1,3,1.12l0,0v.05l1.91,12.05c.29,2.37,0,3.22-2.31,3.73l.18,1.14,7.1-1.13L100,35c-2.44.27-3.13-1-3.48-3.15L95,21.8l-.07-.43.33.3,14.52,13.21,1.37-.22C110.85,33.14,108.89,20.74,108.89,20.73Z"/><path class="cls-1" d="M116.4,14.59l-.1,1.13h.12a8.84,8.84,0,0,1,1.92.31.75.75,0,0,1,.56.62v0a1,1,0,0,1,0,.6s0,.06,0,.09l-1.22,14v.16a2.34,2.34,0,0,1-.16.82h0v0c-.28.87-1.42.74-2.24.64-.19,0-.35,0-.5,0L114.7,34,132,35.51l.88-6.91-1-.18c-1.37,3.64-3,5.67-7.27,5.3a10.77,10.77,0,0,1-1.4-.24c-1.35-.26-1.29-.93-1.19-2V31.3l.52-6,0-.15h.15c2.53.14,4,1.84,3.9,4.55l1.1.09.71-9.2-1-.09c-.59,2.71-2.17,3.93-4.58,3.51l-.14,0v-.14l.45-5.16v-.15a3.37,3.37,0,0,1,.29-1.29l0,0a1.13,1.13,0,0,1,.53-.6h0a4.45,4.45,0,0,1,1.94-.15c4.28.37,5.43,2.32,6.18,6.26l1,.09.42-6.8Z"/><path class="cls-1" d="M150.94,20.89,150.59,22h0a2.66,2.66,0,0,1,1.84,1.37v.11a1.72,1.72,0,0,1,0,.81,2.4,2.4,0,0,1-.73,1l-.21.2-3.85,3.76-.2.2-.06-.28-1.49-7a1.87,1.87,0,0,1-.08-.92.73.73,0,0,1,.48-.46h0a3,3,0,0,1,1.22.2l.37.11.35-1.09-8.59-2.8-.36,1.09c1.39.46,1.53,1.07,1.84,2.46l2.1,9.36v.08l-1.64,5.06-.06.2c-.15.48-.33,1.09-1,1.12a6.39,6.39,0,0,1-1.9-.41l-.35-.11L138,37.17l9.64,3.13.35-1.09a11.76,11.76,0,0,1-2.16-.87l0,0h0l0,0a.84.84,0,0,1-.23-.33v0h0a2.91,2.91,0,0,1,.15-1.08l1.81-5.58,0,0,0,0,.91-.87,1.11-1.06.51-.49c1-.92,2-1.87,3-2.71,1.38-1.2,2.47-2.13,4.5-1.79l.36-1.11Z"/><path class="cls-1" d="M185.72,41.37l-1.64.11h-.18c-.29,0-.34,0-.42-.3,0-.07,0-.16-.08-.29a6.87,6.87,0,0,0-1.4-2.44,12.83,12.83,0,0,0-1.4-1.37A9.88,9.88,0,0,0,178.89,36a9,9,0,0,0-4.52-1.06,10.15,10.15,0,0,0-8,4.11,10.34,10.34,0,0,0-2.54,6.84,8.59,8.59,0,0,0,3.49,6.6,7.59,7.59,0,0,0,6.24,1.63l.23,0-.06.23-.67,2.83.81.66L178,52.71l0-.05c.26-.33.66-.83,1.19-.68a.59.59,0,0,1,.2.07.43.43,0,0,0,.13.05h.05a6.83,6.83,0,0,1,.87.62l.29.22.72-.89-7-5.64-.72.89,1,.82.07,0a1.36,1.36,0,0,1,.63.93h0a2.11,2.11,0,0,1-.58,1.09l-.07.09a10.94,10.94,0,0,1-2,2l-.13.07a3.06,3.06,0,0,1-2.16.56,4.55,4.55,0,0,1-2.18-.92,4.08,4.08,0,0,1-1.3-4.75,18.21,18.21,0,0,1,2.93-5,19.76,19.76,0,0,1,2.74-2.89c2.32-1.9,4.84-3.34,7.6-1.11a5.75,5.75,0,0,1,.88,1c1.8,2.62.85,5.21-.16,7.95l0,.15.84.6L186.42,42Z"/><path class="cls-1" d="M202.7,62,192.34,48.2l-.91.69.07.09a8.36,8.36,0,0,1,1.06,1.64.74.74,0,0,1-.08.82v0a1,1,0,0,1-.41.43l-.08.06-11.18,8.43-.13.1a2.5,2.5,0,0,1-.72.43h0c-.84.37-1.49-.56-2-1.24l-.3-.4-.92.69,10.48,13.9,5.73-4-.55-.87c-3.62,1.41-6.24,1.54-8.8-1.86a11.07,11.07,0,0,1-.77-1.2c-.71-1.18-.17-1.59.72-2.26l.11-.08L188.5,60l.12-.09.09.11c1.59,2,1.3,4.19-.76,5.95l.66.89,7.31-5.64-.63-.83c-2.41,1.38-4.37,1-5.67-1.06l-.08-.12.12-.09L193.8,56l.12-.09a3.23,3.23,0,0,1,1.14-.65h0a1.16,1.16,0,0,1,.8,0h0a4.42,4.42,0,0,1,1.41,1.34c2.59,3.43,1.9,5.58-.52,8.78l.62.82Z"/><path class="cls-1" d="M212.17,81.53l-1.06.43c.72,2,.16,3.05-2,3.94l-7.37,3-.41.16.21-.38,7.86-14.06L207,68.71l-1.06.43a3.47,3.47,0,0,1-.42,3.15l0,0h0l-11.32,4.57c-2.24.83-3.13.74-4.15-1.41l-1.07.43,2.69,6.67,1.07-.43c-.82-2.32.22-3.26,2.29-4.1l9.45-3.82.41-.17-.21.39L195,91.59l.52,1.28,13.07-5.28a12.08,12.08,0,0,1,2.27-.75c1.55-.28,2.19.51,2.89,1.67l1.08-.43Z"/><path class="cls-1" d="M218.58,110.6l-2.39-17-1.13.15v.12a8.46,8.46,0,0,1,.14,1.94.75.75,0,0,1-.48.69l0,0a1.11,1.11,0,0,1-.57.19h-.1l-13.87,2-.16,0a2.36,2.36,0,0,1-.84,0h0c-.91-.08-1-1.21-1.12-2,0-.18,0-.35-.07-.49l-1.13.16,2.42,17.23,6.94-.7-.06-1c-3.86-.51-6.21-1.67-6.8-5.89a11.4,11.4,0,0,1-.09-1.42c0-1.38.63-1.47,1.73-1.62l.14,0,5.94-.84.15,0,0,.15c.43,2.5-.9,4.3-3.56,4.83l.15,1.1,9.13-1.39-.15-1c-2.77,0-4.31-1.23-4.44-3.68v-.14l.14,0,5.13-.72.15,0a3.26,3.26,0,0,1,1.32,0h0a1.11,1.11,0,0,1,.7.38h0a4.48,4.48,0,0,1,.58,1.86c.6,4.26-1,5.81-4.71,7.43l.14,1Z"/><path class="cls-1" d="M217.66,119.26c0,.24-.09.67-.09.68s0,.25,0,.38a1.71,1.71,0,0,1-.57,1.35,3.46,3.46,0,0,1-2,0l-.29,0L202,120.1H202c-1.07-.19-1.66-.29-1.52-1.65,0-.42.08-.85.13-1.28l-1.14-.14-1.21,9.85,1.14.14c0-.19.06-.49.06-.5s.05-.29.07-.44a5.86,5.86,0,0,1,.18-.91v0c.1-.59.33-.79,1-.87h0c.31,0,.65.06.94.09l6.26.77.15,0v.15l-.11.83c0,.38-.09.78-.17,1.17-.49,2.59-2.29,2.49-4.58,2.37l-1.64-.1a4.48,4.48,0,0,0-2.91.6,3.77,3.77,0,0,0-1.52,2.69c-.17,1.37-.05,3.78,2.6,4.6a6.13,6.13,0,0,0,1.4.32l.12-1c-.75-.16-2.06-.46-2.39-1.18a.94.94,0,0,1,.09-.88v0l0,0a1.33,1.33,0,0,1,.4-.22,8.26,8.26,0,0,1,1.8-.3h.06L203,134a4.72,4.72,0,0,0,4.43-3.27l0-.12.12,0h.06l.14,0v.14c-.07,1.65.18,5.52,4.08,6a4.63,4.63,0,0,0,3.85-1.37,7.18,7.18,0,0,0,1.57-4l.29-1.93s1.08-8.79,1.24-10Zm-1.1,9.38,0,.19c-.33,2.66-1.54,3.67-4,3.36-2.75-.34-3.8-1.72-3.54-4.63l0-.53c0-.51.07-1,.16-1.55l0-.15.15,0L215,126c.47,0,1.33.16,1.61.8h0v0A5,5,0,0,1,216.56,128.64Z"/><path class="cls-1" d="M200.46,143.64l-.08-.07c-1.33-1.32-3-2.95-2.5-4.95l-1.08-.43-2.68,6.64,1.06.42a3,3,0,0,1,1.39-1.67,1.82,1.82,0,0,1,1.48,0,5.72,5.72,0,0,1,1.75,1.29c.17.17.33.32.49.46l.09.08,0,.1-2.49,6.16,0,.1h-.11l-3.29-.12h-.14c-.4,0-.85,0-1.1-.5s.05-1.07.26-1.59a1.67,1.67,0,0,0,.08-.2l-1.06-.42-3.3,8.16,1.07.43c.69-1.51,1.25-1.58,2.95-1.58l17.85.12.65-1.61C210.74,153.57,200.46,143.64,200.46,143.64Zm6.36,8.33-7.29-.17h-.23l.09-.21,2-4.88.08-.21.17.16,5.32,5,.3.28Z"/><path class="cls-1" d="M202.86,169.31l-.31.42c-1.28,1.66-1.42,1.69-3,.51l-.34-.25-10.52-7.64c-.44-.32-1.18-.86-.76-1.54l.25-.43a9.62,9.62,0,0,1,.78-1.18l-.92-.67L177.94,172.4l5.56,4.41.63-.87c-2.82-3.11-3.15-5.78-1.08-8.63a12,12,0,0,1,1.09-1.32c.81-.91,1.35-.55,2.09-.05,0,0,.21.13.21.14l11,7.95c1,.7,1.25,1.06.5,2.1l-.89,1.23.92.67,5.85-8.05Z"/><polygon class="cls-1" points="59.32 189.23 59.36 189.13 61.86 183.08 56.3 186.56 56.21 186.62 56.12 186.55 51 182.26 52.57 188.87 52.6 188.98 52.5 189.04 46.76 192.59 53.41 193.02 53.52 193.02 53.55 193.13 55.12 199.61 57.64 193.35 57.68 193.24 57.79 193.25 64.54 193.62 59.4 189.31 59.32 189.23"/><path class="cls-1" d="M73.09,188.58l-3.37,6.29.89.41c1.66-2.52,4.28-4.75,6.76-3.59.45.21.83.61.66,1s-.32.75-.47,1.09l-5.74,12.3-.06.13a2.39,2.39,0,0,1-.51.82l0,0a.88.88,0,0,1-.89.35c-.66-.23-1.35-.47-2-.77l-.48,1L77.14,212l.48-1-.52-.25A7.92,7.92,0,0,1,76,210.1c-1-.61-.8-.95-.38-1.85l5.86-12.58c.17-.35.34-.72.53-1.06s.77-.38,1.23-.17c3.08,1.44,2.08,5.94,1.63,7.48l.91.42,2.67-6.61Z"/><path class="cls-1" d="M90.46,196.53l-.23,1.12.11,0a8.54,8.54,0,0,1,1.87.54.75.75,0,0,1,.48.68v0a1,1,0,0,1,0,.6.2.2,0,0,1,0,.09l-2.91,13.71,0,.16a2.59,2.59,0,0,1-.26.8h0v0h0c-.39.82-1.49.55-2.3.35l-.49-.11-.24,1.13,17,3.62,1.71-6.76-1-.3c-1.81,3.45-3.69,5.26-7.86,4.37a12,12,0,0,1-1.37-.4c-1.31-.43-1.17-1.09-.93-2.18l0-.13,1.25-5.88,0-.14.15,0c2.5.45,3.73,2.32,3.33,5l1.08.23,1.82-9-1-.22c-.92,2.62-2.63,3.64-5,2.92l-.13,0,0-.14,1.07-5.06,0-.16a3.36,3.36,0,0,1,.44-1.24v0a1.12,1.12,0,0,1,.59-.53h0a4.34,4.34,0,0,1,1.94.09c4.21.9,5.11,3,5.38,7l1,.22,1.25-6.71Z"/><path class="cls-1" d="M129.72,218.25c-1.36,0-1.93-.6-2.77-1.78l-5.54-7.76-.06-.09.06-.09,3.43-4.81c1-1.32,1.76-2.35,3.58-2.6l0-1.17-7.71.27,0,1.15a3.23,3.23,0,0,1,2.23.57,1.24,1.24,0,0,1,.4.91c0,.78-1.07,2.23-2,3.4-.32.42-.58.77-.74,1l-.12.2-.13-.19-2.91-4.07,0-.06a1.84,1.84,0,0,1-.43-.86.6.6,0,0,1,.26-.53,2.4,2.4,0,0,1,1.25-.29l.33,0,0-1.14-8.87.31,0,1.15a2.13,2.13,0,0,1,2,1.08l5.86,8.17.06.09-.06.09-4.25,5.91a4.36,4.36,0,0,1-3,1.82l0,1.16,8.22-.29,0-1.14h-.1a6,6,0,0,1-1.34,0,2.42,2.42,0,0,1-.72-.23h0a1.4,1.4,0,0,1-.75-1.18,2.25,2.25,0,0,1,.34-1.28c.52-.84,1.1-1.66,1.65-2.45l.74-1,.12-.18.13.17,3.06,4.25a2,2,0,0,1,.48.88v0a.71.71,0,0,1-.23.83l0,0h0l-.21.08-.18.07h-.05c-.34,0-.71.05-1,.06l0,1.14,9.06-.31Z"/><path class="cls-1" d="M151.57,213c-1.63.32-2-.08-3-1.46L138.16,197l-1.69.42-2.17,15.45,0,.1c-.28,1.85-.63,4.14-2.53,4.93l.28,1.13,6.95-1.74-.27-1.1a3.05,3.05,0,0,1-2.18-.14,1.87,1.87,0,0,1-.84-1.22,5.66,5.66,0,0,1,0-2.17c0-.24.06-.46.08-.68v-.11l.11,0,6.44-1.61.11,0,.06.09,1.83,2.74.08.11a1,1,0,0,1,.24,1.18c-.21.42-.89.59-1.44.72l-.2.06.27,1.11,8.55-2.13Zm-10.21-3.91-5.11,1.27-.22,0,0-.22.95-7.27.06-.41.23.34,4.15,6,.13.18Z"/><path class="cls-1" d="M157.36,210l.14,0a7.85,7.85,0,0,0,5.36-.61,7.29,7.29,0,0,0,3.57-3.37,6.31,6.31,0,0,0-.17-5.22c-2-4.19-5.59-3.72-9.35-2.81l-1.62.43c-1.73.42-3.45.56-4.33-1.23s.42-3.55,2-4.34c3-1.47,6.45.38,8.5,2.45l.93-.45-3.31-6-.81.4-.66,1.77,0,.12-.13,0a7.32,7.32,0,0,0-4.66.63c-2.8,1.37-5.36,4.4-3.39,8.44a5.59,5.59,0,0,0,3.86,3,11.08,11.08,0,0,0,5.48-.45l1.85-.47c1.93-.52,3.22-.05,3.95,1.44a3,3,0,0,1,.18,2.33,4.33,4.33,0,0,1-2.28,2.35c-3.25,1.58-7-.45-9.23-2.7l-.9.44,3.43,6.58.83-.4.72-2.17Z"/><polygon class="cls-1" points="179.11 193.71 179.23 193.7 185.88 193.39 180.22 189.72 180.12 189.66 180.15 189.56 181.8 183 176.59 187.22 176.5 187.29 176.4 187.23 170.94 183.62 173.3 189.74 173.34 189.85 173.25 189.92 168.06 194.13 174.85 193.84 174.97 193.84 175 193.94 177.4 200.26 179.08 193.82 179.11 193.71"/><path class="cls-1" d="M109,107.27l9.07-16.59v26.81Zm9.07-20.48-10.18,18.84-20.19,2.49,15.86,14.32-5.15,21L118.06,132l20.22,11.37-5.53-21,14.84-14.32L128,105.63Zm8.64,20.48,16.69,2.49-25.33,7.73ZM131,122l4.58,18-17.54-22.45Zm-13,8.34-16.82,9.63,16.82-22.37ZM105.36,122,91.79,109.76l26.27,7.73Z"/><path class="cls-1" d="M116.73,0A116.73,116.73,0,1,0,233.45,116.73,116.86,116.86,0,0,0,116.73,0Zm-8.45,227.42a3.19,3.19,0,0,0-1.71-2c1.25.11,2.52.2,3.78.28A3.18,3.18,0,0,0,108.28,227.42ZM9.71,116.73a107,107,0,1,1,107,107A107.14,107.14,0,0,1,9.71,116.73Zm94.73,108.43a3.16,3.16,0,0,0-2,1.44,3.21,3.21,0,0,0-1.62-1.9C102.05,224.87,103.24,225,104.44,225.16Zm-5.54-.75a3.16,3.16,0,0,0-2.11,1.35,3.16,3.16,0,0,0-1.39-2C96.56,224,97.73,224.21,98.9,224.41Zm-5.71-1.1a3.18,3.18,0,0,0-2.06,1.23,3.17,3.17,0,0,0-.85-1.91C91.25,222.87,92.22,223.1,93.19,223.31ZM88,222.62a2.2,2.2,0,1,1-2.2,2.2A2.2,2.2,0,0,1,88,222.62Zm-2.45.18a3.3,3.3,0,0,0-.81-1.7c.77.24,1.55.46,2.34.68A3.1,3.1,0,0,0,85.51,222.8Zm-3.81-2.66a3.16,3.16,0,0,0-1.75,1,3.19,3.19,0,0,0-.85-2C80,219.53,80.83,219.84,81.7,220.14ZM73.54,217c1,.43,2,.83,3,1.23a3.12,3.12,0,0,0-2.07,1h0A3.18,3.18,0,0,0,73.54,217ZM68,214.45c1.09.54,2.19,1.07,3.3,1.58h-.07a3.19,3.19,0,0,0-2.19.87s0-.06,0-.09A3.17,3.17,0,0,0,68,214.45Zm-8.88-5c.6.37,1.21.73,1.82,1.09h-.15a3.24,3.24,0,0,0-1.45.36,1.81,1.81,0,0,0,0-.23A3,3,0,0,0,59.14,209.49Zm-4.84-3.21c.59.42,1.19.83,1.79,1.23a3.19,3.19,0,0,0-1.65.52,3.5,3.5,0,0,0,.07-.65A3.12,3.12,0,0,0,54.3,206.28Zm-4.64-3.43c.58.45,1.16.9,1.75,1.34h-.1a3.15,3.15,0,0,0-1.58.44,3.32,3.32,0,0,0,.1-.77A3.28,3.28,0,0,0,49.66,202.85Zm-4.44-3.65c.58.51,1.17,1,1.76,1.48l-.34,0a3.19,3.19,0,0,0-1.41.34,3.18,3.18,0,0,0,.14-.88A3,3,0,0,0,45.22,199.2Zm-4.07-3.73c.52.5,1.05,1,1.58,1.5a3.43,3.43,0,0,0-.56-.06,3.23,3.23,0,0,0-1.08.2,3.11,3.11,0,0,0,.15-.92A2.84,2.84,0,0,0,41.15,195.47Zm-4-4.07c.52.56,1.06,1.12,1.6,1.67A3.27,3.27,0,0,0,38,193a3,3,0,0,0-1.12.22,3.26,3.26,0,0,0,.27-1.28A3.07,3.07,0,0,0,37.14,191.4Zm-3.74-4.19c.47.56,1,1.1,1.44,1.65a3.36,3.36,0,0,0-.85-.13,2.91,2.91,0,0,0-.89.15,3.23,3.23,0,0,0,.33-1.39A2.66,2.66,0,0,0,33.4,187.21Zm-3.78-4.75c.5.67,1,1.33,1.52,2a3.39,3.39,0,0,0-.91-.14,3,3,0,0,0-.85.13,3.26,3.26,0,0,0,.31-1.35A3.18,3.18,0,0,0,29.62,182.46Zm-3.29-4.62q.84,1.24,1.71,2.46a3.12,3.12,0,0,0-1.55-.42,3.5,3.5,0,0,0-.65.07,3.16,3.16,0,0,0,.52-1.75C26.36,178.07,26.34,178,26.33,177.84Zm-3-4.64c.46.76.93,1.5,1.4,2.24a3.15,3.15,0,0,0-1.58-.44c-.14,0-.27,0-.4,0a3.11,3.11,0,0,0,.58-1.82Zm-1.59-2.73a3.13,3.13,0,0,0-1.6-.45l-.26,0a3.19,3.19,0,0,0,.64-1.8C20.94,169,21.35,169.73,21.76,170.47Zm-2.65-5a3.23,3.23,0,0,0-1.76-.53h0a3.18,3.18,0,0,0,.69-1.7C18.38,164,18.74,164.72,19.11,165.46Zm-2.38-5.11a3.19,3.19,0,0,0-1.77-.6,3.16,3.16,0,0,0,.78-1.75C16.06,158.79,16.39,159.57,16.73,160.35Zm-2.08-5.12a3.16,3.16,0,0,0-1.76-.76,3.16,3.16,0,0,0,.86-1.74C14,153.57,14.34,154.4,14.65,155.23ZM12.08,83.91a2.2,2.2,0,1,1-2.2-2.2A2.2,2.2,0,0,1,12.08,83.91ZM12,81.57a3.19,3.19,0,0,0,1.71-.76q-.4,1.14-.78,2.31A3.16,3.16,0,0,0,12,81.57ZM8,108.46c-.07.86-.12,1.73-.17,2.61a3.22,3.22,0,0,0-1.3-1.36A3.26,3.26,0,0,0,8,108.46ZM6.9,104a3.27,3.27,0,0,0,1.67-1.14c-.11.89-.22,1.78-.31,2.67A3.17,3.17,0,0,0,6.9,104Zm.83,10.12c0,.85,0,1.71,0,2.56a3.26,3.26,0,0,0-1.47-1.25A3.24,3.24,0,0,0,7.73,114.13Zm0,5.86c0,.87.06,1.75.1,2.62a3.18,3.18,0,0,0-1.49-1.34A3.19,3.19,0,0,0,7.75,120ZM8,125.45c.08,1,.17,2,.28,3A3.25,3.25,0,0,0,6.71,127,3.14,3.14,0,0,0,8,125.45Zm.55,5.31c.12,1,.25,1.9.4,2.84a3.29,3.29,0,0,0-1.59-1.12A3.23,3.23,0,0,0,8.59,130.76ZM7.8,98.28a3.24,3.24,0,0,0,1.64-1.06c-.16.85-.3,1.7-.43,2.56A3.31,3.31,0,0,0,7.8,98.28ZM9.48,136.5c.15.84.31,1.67.48,2.5a3.16,3.16,0,0,0-1.57-1A3.15,3.15,0,0,0,9.48,136.5ZM8.87,92.65a3.15,3.15,0,0,0,1.72-1c-.2.87-.4,1.75-.58,2.63A3.14,3.14,0,0,0,8.87,92.65ZM12,86.29c-.23.82-.46,1.64-.68,2.47a3.27,3.27,0,0,0-1.06-1.69A3.06,3.06,0,0,0,12,86.29Zm-1.57,3.23a2.2,2.2,0,1,1-2.2-2.2A2.21,2.21,0,0,1,10.42,89.52ZM7,93a2.2,2.2,0,1,1-2.2,2.2A2.2,2.2,0,0,1,7,93ZM6,98.74a2.2,2.2,0,1,1-2.2,2.2A2.21,2.21,0,0,1,6,98.74Zm-.73,5.82a2.2,2.2,0,1,1-2.2,2.2A2.21,2.21,0,0,1,5.31,104.56ZM7.2,112.5A2.2,2.2,0,1,1,5,110.3,2.21,2.21,0,0,1,7.2,112.5Zm0,5.89a2.2,2.2,0,1,1-2.2-2.2A2.21,2.21,0,0,1,7.2,118.39ZM5.1,122a2.2,2.2,0,1,1-2.2,2.2A2.21,2.21,0,0,1,5.1,122Zm.42,5.71a2.2,2.2,0,1,1-2.2,2.2A2.21,2.21,0,0,1,5.52,127.71Zm.93,5.61a2.2,2.2,0,1,1-2.2,2.2A2.21,2.21,0,0,1,6.45,133.32Zm1.14,5.61a2.2,2.2,0,1,1-2.2,2.2A2.2,2.2,0,0,1,7.59,138.93Zm3.05,3.12c.21.9.44,1.79.67,2.68a3.18,3.18,0,0,0-1.75-1.1A3.17,3.17,0,0,0,10.64,142.05Zm2.18,7.9a3.18,3.18,0,0,0-1.83-.87,3.16,3.16,0,0,0,1-1.88C12.26,148.12,12.53,149,12.82,150Zm1.1-73.75a3.14,3.14,0,0,0,1.78-.62c-.31.77-.62,1.54-.91,2.32A3.16,3.16,0,0,0,13.92,76.2ZM16.29,71a3.26,3.26,0,0,0,1.63-.5c-.32.69-.64,1.38-.94,2.07A3.07,3.07,0,0,0,16.29,71Zm2.38-5.21.24,0a3.23,3.23,0,0,0,1.57-.42c-.38.7-.74,1.41-1.1,2.12A3.19,3.19,0,0,0,18.67,65.8Zm2.77-5.1c.13,0,.25,0,.38,0a3.15,3.15,0,0,0,1.55-.42c-.44.71-.86,1.43-1.28,2.16A3.09,3.09,0,0,0,21.44,60.7Zm3.11-4.8a2.88,2.88,0,0,0,.59.06,3,3,0,0,0,1.16-.23c-.44.65-.88,1.31-1.3,2,0-.06,0-.11,0-.16A3.17,3.17,0,0,0,24.55,55.9Zm3.35-4.72a3.33,3.33,0,0,0,.77.11,3,3,0,0,0,.9-.15c-.42.56-.83,1.11-1.24,1.68,0,0,0,0,0-.06A3.18,3.18,0,0,0,27.9,51.18Zm3.56-4.62a3.32,3.32,0,0,0,.95.16,3.1,3.1,0,0,0,.76-.1c-.44.52-.88,1.06-1.31,1.59,0,0,0-.08,0-.12A3.15,3.15,0,0,0,31.46,46.56Zm3.9-4.28a3,3,0,0,0,1,.18,3.19,3.19,0,0,0,.54-.05c-.44.48-.89,1-1.33,1.45a1.86,1.86,0,0,0,0-.34A3.23,3.23,0,0,0,35.36,42.28Zm4-4.21a3.16,3.16,0,0,0,1.19.24,3.56,3.56,0,0,0,.47-.05c-.49.48-1,1-1.47,1.45a3.27,3.27,0,0,0,0-.45A3.15,3.15,0,0,0,39.32,38.07Zm4.21-4a3,3,0,0,0,1.44.36h.17c-.51.44-1,.89-1.51,1.34a2.93,2.93,0,0,0-.1-1.69Zm4.59-3.34a3.34,3.34,0,0,0,1,.17c.1,0,.2,0,.3,0L48.09,32a3.36,3.36,0,0,0,.08-.71A2.76,2.76,0,0,0,48.12,30.76Zm4.17-3.39a3.07,3.07,0,0,0,1.41.35h0l-1.61,1.16a3.25,3.25,0,0,0,.22-1.13C52.33,27.61,52.3,27.49,52.29,27.37Zm4.6-2.89a3.12,3.12,0,0,0,1.18.31l-1.41.91a3.06,3.06,0,0,0,.23-1.18Zm4.57-2.91a3.05,3.05,0,0,0,1.28.4c-.52.29-1,.59-1.53.89a3.24,3.24,0,0,0,.25-1.25Zm4.42-1.31a3.21,3.21,0,0,0,.36-1.45,3.17,3.17,0,0,0,1.52.48C67.13,19.6,66.5,19.93,65.88,20.26Zm9.47-4.42a3.22,3.22,0,0,0,.6-1.45,3.34,3.34,0,0,0,1.34.68Zm10.43-3.65a3.25,3.25,0,0,0,.77-1.64,3.13,3.13,0,0,0,1.48,1Zm5.54-1.47a3.14,3.14,0,0,0,.81-1.55,3.17,3.17,0,0,0,1.49,1ZM96.68,9.6a3.3,3.3,0,0,0,1-1.57,3.13,3.13,0,0,0,1.39,1.15C98.27,9.31,97.47,9.45,96.68,9.6Zm5.65-.89A3.17,3.17,0,0,0,103.4,7,3.21,3.21,0,0,0,105,8.39C104.11,8.49,103.22,8.59,102.33,8.71Zm5.47-.58a3.21,3.21,0,0,0,1.35-1.7,3.31,3.31,0,0,0,1.47,1.51C109.68,8,108.74,8.05,107.8,8.13Zm5.92-.31A3.19,3.19,0,0,0,115,6.4a3.21,3.21,0,0,0,1.35,1.38C115.45,7.78,114.58,7.8,113.72,7.82Zm5.54,0a3.25,3.25,0,0,0,1.3-1.22,3.24,3.24,0,0,0,1.15,1.31C120.9,7.86,120.08,7.83,119.26,7.81Zm5.54.27A3.13,3.13,0,0,0,126.08,7a3.22,3.22,0,0,0,1.16,1.32C126.43,8.21,125.62,8.14,124.8,8.08Zm5.24.51a3.26,3.26,0,0,0,1.35-1,3.18,3.18,0,0,0,1,1.26C131.61,8.79,130.83,8.68,130,8.59Zm6.78-.24a3.18,3.18,0,0,0,1.33,1.54c-.91-.18-1.84-.36-2.76-.52A3.2,3.2,0,0,0,136.82,8.35Zm22.1,210.49a3.14,3.14,0,0,0-1.69-.85c.81-.32,1.62-.66,2.42-1A3.19,3.19,0,0,0,158.92,218.84ZM148.2,223a3.19,3.19,0,0,0-2.18-1.2c1.06-.3,2.12-.61,3.18-.94A3.18,3.18,0,0,0,148.2,223Zm-5.62,1.29a3.17,3.17,0,0,0-2.15-1.09c1.14-.25,2.26-.52,3.38-.81A3.2,3.2,0,0,0,142.58,224.3ZM137,225.72a3.23,3.23,0,0,0-2-1.45c1.2-.2,2.4-.42,3.59-.66A3.17,3.17,0,0,0,137,225.72Zm-5.79.87a3.21,3.21,0,0,0-1.95-1.5q1.72-.19,3.42-.45A3.19,3.19,0,0,0,131.25,226.59Zm-5.77.53a3.16,3.16,0,0,0-1.67-1.53c1.08-.07,2.16-.16,3.24-.26A3.22,3.22,0,0,0,125.48,227.12Zm-5.84.38a3.16,3.16,0,0,0-1.78-1.68c1.11,0,2.23,0,3.33-.09A3.21,3.21,0,0,0,119.64,227.5Zm-5.65-.32a3.23,3.23,0,0,0-1.63-1.44c1.07,0,2.14.07,3.22.08A3.21,3.21,0,0,0,114,227.18Zm2.74-.58a2.2,2.2,0,1,1-2.2,2.2A2.2,2.2,0,0,1,116.73,226.6Zm5.92-.24a2.2,2.2,0,1,1-2.2,2.2A2.21,2.21,0,0,1,122.65,226.36Zm5.84-.39a2.2,2.2,0,1,1-2.2,2.2A2.21,2.21,0,0,1,128.49,226Zm5.84-.78a2.2,2.2,0,1,1-2.2,2.2A2.21,2.21,0,0,1,134.33,225.19Zm5.84-1a2.2,2.2,0,1,1-2.2,2.2A2.21,2.21,0,0,1,140.17,224.18Zm5.53-1.41a2.2,2.2,0,1,1-2.2,2.2A2.21,2.21,0,0,1,145.7,222.77Zm5.68-1.78a2.2,2.2,0,1,1-2.2,2.2A2.19,2.19,0,0,1,151.38,221Zm.38-1c.82-.28,1.64-.57,2.45-.87a3.21,3.21,0,0,0-.67,1.68A3.18,3.18,0,0,0,151.76,220Zm2.75,1.11a2.2,2.2,0,1,1,2.2,2.2A2.19,2.19,0,0,1,154.51,221.14Zm7.59-4.33a2.2,2.2,0,1,1-2.2,2.2A2.19,2.19,0,0,1,162.1,216.81Zm.15-1c.84-.39,1.67-.79,2.5-1.2a3.13,3.13,0,0,0-.55,1.78,1.46,1.46,0,0,0,0,.22A3.19,3.19,0,0,0,162.25,215.83Zm5.15-1.62a2.2,2.2,0,1,1-2.2,2.2A2.21,2.21,0,0,1,167.4,214.21Zm.1-1c.81-.42,1.61-.86,2.41-1.31a3.18,3.18,0,0,0-.51,1.72c0,.12,0,.22,0,.33A3.22,3.22,0,0,0,167.5,213.22Zm5.09-1.79a2.2,2.2,0,1,1-2.2,2.2A2.2,2.2,0,0,1,172.59,211.43Zm0-1-.17,0,2.27-1.4a3.11,3.11,0,0,0-.41,1.54c0,.12,0,.23,0,.35A3.16,3.16,0,0,0,172.59,210.44Zm4.88-2a2.2,2.2,0,1,1-2.2,2.2A2.19,2.19,0,0,1,177.47,208.4Zm0-1-.27,0q1.11-.75,2.22-1.53a3.14,3.14,0,0,0-.34,1.4,2.78,2.78,0,0,0,.06.58A3.19,3.19,0,0,0,177.47,207.4Zm4.81-2.3a2.2,2.2,0,1,1-2.21,2.2A2.21,2.21,0,0,1,182.28,205.1Zm0-1a3.26,3.26,0,0,0-.45.05c.75-.56,1.49-1.14,2.22-1.72a3.17,3.17,0,0,0-.3,1.34,2.81,2.81,0,0,0,.11.77A3.18,3.18,0,0,0,182.28,204.1Zm4.67-2.53a2.2,2.2,0,1,1-2.2,2.2A2.21,2.21,0,0,1,187,201.57Zm0-1a3.29,3.29,0,0,0-.71.09q1.17-1,2.31-2a3.21,3.21,0,0,0-.26,1.25,3.16,3.16,0,0,0,.2,1.06A3.12,3.12,0,0,0,187,200.57Zm2.34-.64a2.2,2.2,0,1,1,2.2,2.2A2.2,2.2,0,0,1,189.29,199.93Zm2.2-3.2a3.14,3.14,0,0,0-1,.17c.76-.7,1.51-1.41,2.24-2.14a3.18,3.18,0,0,0-.21,1.12,3.23,3.23,0,0,0,.21,1.12A3.18,3.18,0,0,0,191.49,196.73ZM142.24,9.16a3.22,3.22,0,0,0,1.07,1.89c-1-.26-2.09-.51-3.14-.74A3.22,3.22,0,0,0,142.24,9.16Zm.94-.53a2.2,2.2,0,1,1,2.2,2.2A2.21,2.21,0,0,1,143.18,8.63Zm4.6,2.1a3.2,3.2,0,0,0,1.19,1.9c-1-.3-2-.59-2.95-.86A3.27,3.27,0,0,0,147.78,10.73Zm6.15,1.56a2.2,2.2,0,1,1,2.2,2.2A2.21,2.21,0,0,1,153.93,12.29Zm-3,0a2.2,2.2,0,1,1,2.2-2.2A2.2,2.2,0,0,1,150.92,12.31Zm2,.24a3.2,3.2,0,0,0,.58,1.6c-.83-.3-1.66-.58-2.49-.86A3.14,3.14,0,0,0,153,12.55Zm5.53,1.87v0a3.2,3.2,0,0,0,.62,1.87l-2.26-.92A3.15,3.15,0,0,0,158.49,14.42Zm32.79,21.44a2.2,2.2,0,1,1,2.2-2.2A2.21,2.21,0,0,1,191.28,35.86Zm-4.46-3.95a2.2,2.2,0,1,1,2.2-2.2A2.2,2.2,0,0,1,186.82,31.91Zm-7.08-5.78a2.2,2.2,0,1,1,2.2,2.2A2.2,2.2,0,0,1,179.74,26.13Zm-4.88-3.38a2.2,2.2,0,1,1,2.2,2.2A2.2,2.2,0,0,1,174.86,22.75Zm-5-3.11a2.2,2.2,0,1,1,2.2,2.2A2.21,2.21,0,0,1,169.82,19.64Zm-5.14-2.75a2.2,2.2,0,1,1,2.2,2.2A2.2,2.2,0,0,1,164.68,16.89Zm-3-.24a2.2,2.2,0,1,1,2.2-2.2A2.21,2.21,0,0,1,161.69,16.65Zm2,.27a3,3,0,0,0,.52,1.7l-2.17-1A3.13,3.13,0,0,0,163.69,16.92Zm5.16,2.47a1.9,1.9,0,0,0,0,.25,3.16,3.16,0,0,0,.45,1.6l-2.19-1.18A3.15,3.15,0,0,0,168.85,19.39Zm5.07,2.81a2.51,2.51,0,0,0-.06.55,3.23,3.23,0,0,0,.31,1.36c-.7-.43-1.4-.86-2.11-1.28A3.18,3.18,0,0,0,173.92,22.2ZM177.06,26a3.19,3.19,0,0,0,1.77-.54,3.38,3.38,0,0,0-.09.72,3.23,3.23,0,0,0,.21,1.12c-.63-.44-1.26-.87-1.91-1.3Zm4.88,3.38a3.13,3.13,0,0,0,1.85-.61,3,3,0,0,0,.06,2.15c-.68-.53-1.35-1.05-2-1.56Zm4.88,3.58a3.08,3.08,0,0,0,1.48-.39,3.34,3.34,0,0,0-.21,1.14,3,3,0,0,0,.11.79c-.62-.54-1.25-1.07-1.88-1.59A4.23,4.23,0,0,0,186.82,32.91Zm4.46,3.94a3.11,3.11,0,0,0,1.4-.33,3.11,3.11,0,0,0-.23,1.19,3.56,3.56,0,0,0,.09.73c-.57-.55-1.14-1.1-1.72-1.63A3.42,3.42,0,0,0,191.28,36.85Zm33.87,69.81a3.27,3.27,0,0,0,1.58,1.15,3.11,3.11,0,0,0-1.37,1.45C225.3,108.39,225.23,107.52,225.15,106.66Zm-.34-3.17c-.11-.92-.23-1.84-.36-2.75a3.2,3.2,0,0,0,1.72,1.27A3.25,3.25,0,0,0,224.81,103.49ZM224.9,129a3.23,3.23,0,0,0,1.44,1.8,3.18,3.18,0,0,0-1.84,1.39C224.65,131.13,224.78,130.07,224.9,129Zm.26-2.5c.1-1.12.18-2.24.25-3.37a3.14,3.14,0,0,0,1.53,1.89A3.19,3.19,0,0,0,225.16,126.5Zm.35-5.5c0-1.13.07-2.26.08-3.39a3.24,3.24,0,0,0,1.65,1.67A3.17,3.17,0,0,0,225.51,121Zm.07-5.86c0-1,0-2-.07-2.92a3.23,3.23,0,0,0,1.53,1.34A3.17,3.17,0,0,0,225.58,115.14Zm2.67-2.34a2.2,2.2,0,1,1,2.2-2.2A2.21,2.21,0,0,1,228.25,112.8Zm-.52-5.81a2.2,2.2,0,1,1,2.2-2.2A2.21,2.21,0,0,1,227.73,107Zm-.62-5.82a2.2,2.2,0,1,1,2.2-2.2A2.2,2.2,0,0,1,227.11,101.17Zm-1-5.71a2.2,2.2,0,1,1,2.2-2.2A2.21,2.21,0,0,1,226.07,95.46Zm-1.35-5.61a2.2,2.2,0,1,1,2.2-2.2A2.2,2.2,0,0,1,224.72,89.85Zm-1.66-5.5a2.2,2.2,0,1,1,2.2-2.2A2.2,2.2,0,0,1,223.06,84.35Zm-2-5.51a2.2,2.2,0,1,1,2.2-2.19A2.2,2.2,0,0,1,221.08,78.84Zm-2.18-5.39a2.2,2.2,0,1,1,2.2-2.2A2.21,2.21,0,0,1,218.9,73.45Zm-2.59-5.3a2.2,2.2,0,1,1,2.2-2.2A2.21,2.21,0,0,1,216.31,68.15ZM213.5,63a2.2,2.2,0,1,1,2.2-2.2A2.21,2.21,0,0,1,213.5,63Zm-3.11-5a2.2,2.2,0,1,1,2.2-2.2A2.2,2.2,0,0,1,210.39,58Zm-3.32-4.77a2.2,2.2,0,1,1,2.2-2.2A2.2,2.2,0,0,1,207.07,53.2Zm-3.64-4.68a2.2,2.2,0,1,1,2.2-2.2A2.2,2.2,0,0,1,203.43,48.52Zm-3.15-1.76c-.52-.62-1.05-1.24-1.58-1.85a2.91,2.91,0,0,0,.89.15,3.4,3.4,0,0,0,1-.18,3,3,0,0,0-.36,1.44A3.13,3.13,0,0,0,200.28,46.76Zm3.15,2.76a3.38,3.38,0,0,0,.9-.14,3.09,3.09,0,0,0-.46,1.62c0,.11,0,.22,0,.33-.5-.68-1-1.34-1.54-2A3.18,3.18,0,0,0,203.43,49.52Zm3.64,4.67a2.88,2.88,0,0,0,.59-.06,3.17,3.17,0,0,0-.47,1.64,1.81,1.81,0,0,0,0,.23c-.47-.7-.95-1.39-1.43-2.08A3,3,0,0,0,207.07,54.19ZM210.39,59a2.94,2.94,0,0,0,.51,0,3.15,3.15,0,0,0-.59,1.84c0,.05,0,.1,0,.15-.46-.78-.94-1.56-1.43-2.33A3.19,3.19,0,0,0,210.39,59Zm3.11,5c.13,0,.24,0,.36,0a3.13,3.13,0,0,0-.74,2c-.43-.82-.87-1.63-1.33-2.44A3.14,3.14,0,0,0,213.5,64Zm2.81,5.2.22,0a3.19,3.19,0,0,0-.82,2c-.4-.88-.81-1.75-1.24-2.61A3.15,3.15,0,0,0,216.31,69.15Zm2.48,5.28a3.23,3.23,0,0,0-.87,1.89q-.54-1.35-1.11-2.67A3.23,3.23,0,0,0,218.79,74.43Zm2.09,5.39a3.16,3.16,0,0,0-1,1.91c-.31-.91-.62-1.82-1-2.73A3.16,3.16,0,0,0,220.88,79.82Zm1.7,5.48a3.12,3.12,0,0,0-1,1.84c-.26-.93-.54-1.87-.82-2.79A3.19,3.19,0,0,0,222.58,85.3Zm1.49,5.48A3.14,3.14,0,0,0,223,92.59c-.23-1-.46-2-.71-2.94A3.18,3.18,0,0,0,224.07,90.78Zm1.22,5.57A3.17,3.17,0,0,0,224,98.13c-.18-1-.36-2-.56-3A3.21,3.21,0,0,0,225.29,96.35Zm-1.17,38.29a3.18,3.18,0,0,0,1.27,1.84,3.24,3.24,0,0,0-1.83,1.25C223.77,136.71,224,135.68,224.12,134.64Zm-1.07,5.59a3.21,3.21,0,0,0,1.31,2,3.13,3.13,0,0,0-2.1,1.38C222.54,142.47,222.8,141.35,223.05,140.23Zm-1.3,5.28a3.18,3.18,0,0,0,1.14,2.27,3.16,3.16,0,0,0-2.14,1.18C221.1,147.82,221.43,146.67,221.75,145.51Zm-1.69,5.6a3.19,3.19,0,0,0,.95,2.12,3.2,3.2,0,0,0-1.93.72C219.42,153,219.74,152.06,220.06,151.11Zm-2.12,5.83a3.23,3.23,0,0,0,.92,1.77,3.14,3.14,0,0,0-2,.76C217.26,158.63,217.61,157.79,217.94,156.94ZM215.77,162a3.16,3.16,0,0,0,.8,2,3.19,3.19,0,0,0-2.14.85C214.89,163.92,215.34,163,215.77,162Zm-12,20.16a3.23,3.23,0,0,0,.52,1.72,3.43,3.43,0,0,0-.57-.06,3.12,3.12,0,0,0-1.54.42C202.74,183.59,203.27,182.89,203.79,182.19Zm-2.25,4.86a2.2,2.2,0,1,1,2.2,2.2A2.21,2.21,0,0,1,201.54,187.05Zm-.53,1.63a3.36,3.36,0,0,0-1.19-.23,3.05,3.05,0,0,0-1.38.33c.76-.87,1.52-1.75,2.26-2.65a3.16,3.16,0,0,0-.15.92A3.13,3.13,0,0,0,201,188.68Zm3.78-6.51a2.2,2.2,0,1,1,2.2,2.2A2.21,2.21,0,0,1,204.79,182.17Zm1.2-3c.47-.67.93-1.34,1.38-2,0,.09,0,.16,0,.25a3.15,3.15,0,0,0,.52,1.74A3.18,3.18,0,0,0,207,179,3.05,3.05,0,0,0,206,179.15Zm2.36-1.78a2.2,2.2,0,1,1,2.19,2.2A2.2,2.2,0,0,1,208.35,177.37Zm.66-2.79c.49-.79,1-1.58,1.45-2.38a1.49,1.49,0,0,0,0,.21,3.23,3.23,0,0,0,.56,1.81,3.41,3.41,0,0,0-.46-.05A3.21,3.21,0,0,0,209,174.58Zm2.42-2.17a2.2,2.2,0,1,1,2.2,2.2A2.21,2.21,0,0,1,211.43,172.41Zm.44-2.66c.53-1,1.06-1.93,1.56-2.91,0,.11,0,.23,0,.35a3.18,3.18,0,0,0,.78,2.08,3.31,3.31,0,0,0-.55-.06A3.13,3.13,0,0,0,211.87,169.75Zm2.52-2.56a2.2,2.2,0,1,1,2.2,2.2A2.21,2.21,0,0,1,214.39,167.19Zm2.37-5.29a2.2,2.2,0,1,1,2.2,2.2A2.19,2.19,0,0,1,216.76,161.9Zm2.12-5.48a2.2,2.2,0,1,1,2.2,2.2A2.21,2.21,0,0,1,218.88,156.42Zm2.16-5.48a2.2,2.2,0,1,1,2.2,2.2A2.21,2.21,0,0,1,221,150.94Zm1.69-5.61a2.2,2.2,0,1,1,2.2,2.2A2.2,2.2,0,0,1,222.73,145.33Zm1.24-5.76a2.2,2.2,0,1,1,2.2,2.2A2.21,2.21,0,0,1,224,139.57Zm1-5.71a2.2,2.2,0,1,1,2.2,2.2A2.21,2.21,0,0,1,225,133.86Zm.73-5.81a2.2,2.2,0,1,1,2.2,2.2A2.19,2.19,0,0,1,225.74,128.05Zm.52-5.82a2.2,2.2,0,1,1,2.2,2.2A2.2,2.2,0,0,1,226.26,122.23Zm.07-5.87a2.2,2.2,0,1,1,2.2,2.2A2.21,2.21,0,0,1,226.33,116.36Zm3.42-3a3.23,3.23,0,0,0,1.5-1.75q.08,1.61.09,3.21A3.19,3.19,0,0,0,229.75,113.41Zm-.5-5.83a3.22,3.22,0,0,0,1.57-2c.11,1.2.22,2.41.3,3.63A3.2,3.2,0,0,0,229.25,107.58Zm-.58-5.84a3.22,3.22,0,0,0,1.46-1.76c.16,1.12.32,2.25.45,3.39A3.21,3.21,0,0,0,228.67,101.74Zm-.78-5.86a3.17,3.17,0,0,0,1.22-1.69c.2,1,.37,1.91.54,2.87A3.16,3.16,0,0,0,227.89,95.88Zm-1.17-5.75a3.18,3.18,0,0,0,1.08-1.68c.23.9.45,1.81.66,2.71A3.18,3.18,0,0,0,226.72,90.13ZM225.2,84.5a3.16,3.16,0,0,0,1-1.7c.26.86.52,1.71.77,2.58A3.25,3.25,0,0,0,225.2,84.5ZM223.26,79a3.19,3.19,0,0,0,1-1.87c.33.89.65,1.79,1,2.69A3.19,3.19,0,0,0,223.26,79Zm-2.06-5.51a3.21,3.21,0,0,0,.86-1.78c.36.83.71,1.67,1.05,2.51A3.19,3.19,0,0,0,221.2,73.46Zm-2.3-5.41-.22,0a3.15,3.15,0,0,0,.81-1.92q.6,1.2,1.17,2.43A3.23,3.23,0,0,0,218.9,68.05Zm-2.59-5.3c-.12,0-.24,0-.36,0a3.13,3.13,0,0,0,.74-1.92c.44.78.88,1.58,1.31,2.38A3.19,3.19,0,0,0,216.31,62.75Zm-2.81-5.19a4,4,0,0,0-.5,0,3.15,3.15,0,0,0,.59-1.84s0-.06,0-.09c.47.75.94,1.5,1.39,2.26A3,3,0,0,0,213.5,57.56Zm-3.11-5a2.88,2.88,0,0,0-.59.06,3.16,3.16,0,0,0,.46-1.64,2.85,2.85,0,0,0,0-.29c.52.72,1,1.45,1.52,2.18A3.12,3.12,0,0,0,210.39,52.58Zm-3.32-4.78a3.32,3.32,0,0,0-.9.14,3.06,3.06,0,0,0,.46-1.62,3.41,3.41,0,0,0,0-.46c.57.72,1.14,1.45,1.7,2.18A3.3,3.3,0,0,0,207.07,47.8Zm-3.64-4.67a3.11,3.11,0,0,0-1,.18,3.12,3.12,0,0,0,.37-1.45,3.18,3.18,0,0,0-.07-.62c.61.69,1.21,1.39,1.8,2.09A3.24,3.24,0,0,0,203.43,43.13Zm-1.64-1.27a2.2,2.2,0,1,1-2.2-2.2A2.21,2.21,0,0,1,201.79,41.86Zm-5.34.56c-.5-.54-1-1.08-1.53-1.61a2.84,2.84,0,0,0,.72.09,3.13,3.13,0,0,0,1-.16,3.19,3.19,0,0,0-.22,1.12A3.43,3.43,0,0,0,196.45,42.42Zm-.81-2.51a2.2,2.2,0,1,1,2.2-2.2A2.21,2.21,0,0,1,195.64,39.91Zm0-5.4a3.1,3.1,0,0,0-1.39.34,3.36,3.36,0,0,0,.23-1.19,3.23,3.23,0,0,0-.18-1c.7.65,1.4,1.31,2.08,2A3.57,3.57,0,0,0,195.64,34.51Zm-4.36-4a3.19,3.19,0,0,0-1.48.38,3.24,3.24,0,0,0,.21-1.13,3.19,3.19,0,0,0-.16-1c.71.6,1.42,1.2,2.12,1.81A3.1,3.1,0,0,0,191.28,30.46Zm-4.46-3.95a3.16,3.16,0,0,0-1.86.61,3.09,3.09,0,0,0-.12-2.32q1.16.86,2.28,1.74Zm-4.88-3.58a3.14,3.14,0,0,0-1.77.54,3.38,3.38,0,0,0,.08-.72,3.23,3.23,0,0,0-.34-1.42c.8.54,1.6,1.08,2.39,1.64A2.2,2.2,0,0,0,181.94,22.93Zm-4.88-3.37a3.21,3.21,0,0,0-1.9.63,3.31,3.31,0,0,0,.06-.55,3.26,3.26,0,0,0-.38-1.49l2.32,1.42Zm-7-2.42a2.42,2.42,0,0,0,0-.25,3.13,3.13,0,0,0-.48-1.66c.77.4,1.52.81,2.28,1.23A3.18,3.18,0,0,0,170.05,17.14Zm-5.17-2.73a3.1,3.1,0,0,0-.56-1.77q1.16.52,2.28,1.08A3.17,3.17,0,0,0,164.88,14.41Zm-5.56-2.1v0a3.18,3.18,0,0,0-.85-2.15c.94.37,1.87.76,2.8,1.15A3.18,3.18,0,0,0,159.32,12.31Zm-5.23-2.46a3.21,3.21,0,0,0-.52-1.52c.75.26,1.5.52,2.25.8A3.13,3.13,0,0,0,154.09,9.85ZM148.52,8a3.11,3.11,0,0,0-.76-1.5l2.05.6A3.18,3.18,0,0,0,148.52,8Zm-5.6-1.4a3.16,3.16,0,0,0-.72-1.52c.73.16,1.45.34,2.18.52A3.17,3.17,0,0,0,142.92,6.62Zm-.95.53a2.2,2.2,0,1,1-2.2-2.2A2.2,2.2,0,0,1,142,7.15Zm54.86,183.42a3,3,0,0,0-.2,1.08,3.28,3.28,0,0,0,.25,1.25,3,3,0,0,0-1.13-.22,3.18,3.18,0,0,0-1.12.21C195.37,192.13,196.11,191.36,196.83,190.57Zm-85.63,36a2.2,2.2,0,1,1-2.2,2.2A2.2,2.2,0,0,1,111.2,226.52Zm2.74,3.81a3.2,3.2,0,0,0,1.54,1.41c-1,0-2,0-3.06-.07A3.25,3.25,0,0,0,113.94,230.33Zm5.79-.47a3.22,3.22,0,0,0,2.07,1.77c-1.27.06-2.54.09-3.82.11A3.24,3.24,0,0,0,119.73,229.86Zm5.92-.25a3.21,3.21,0,0,0,1.91,1.61c-1.22.12-2.45.21-3.69.29A3.18,3.18,0,0,0,125.65,229.61Zm5.92-.63a3.22,3.22,0,0,0,2,1.5c-1.16.17-2.33.33-3.5.47A3.19,3.19,0,0,0,131.57,229Zm5.89-.93a3.19,3.19,0,0,0,1.87,1.4c-1.08.22-2.17.42-3.26.61A3.19,3.19,0,0,0,137.46,228.05Zm5.83-1a3.16,3.16,0,0,0,1.82,1.06c-1,.25-1.93.49-2.9.71A3.2,3.2,0,0,0,143.29,227.05Zm5.59-1.9a3.18,3.18,0,0,0,2.25,1.21c-1.11.35-2.23.7-3.35,1A3.16,3.16,0,0,0,148.88,225.15Zm5.67-1.67a3.14,3.14,0,0,0,2.16.85l.26,0c-1.15.44-2.32.87-3.49,1.27A3.18,3.18,0,0,0,154.55,223.48Zm5.34-2.18a3.14,3.14,0,0,0,2.21.9c-1.14.51-2.29,1-3.46,1.46A3.18,3.18,0,0,0,159.89,221.3ZM165.3,219c0-.08,0-.15,0-.22a3.18,3.18,0,0,0,2.12.82l.27,0c-1,.53-2.12,1-3.19,1.55A3.18,3.18,0,0,0,165.3,219Zm5.3-2.6a1.86,1.86,0,0,0,0-.33,3.19,3.19,0,0,0,2,.75,2.3,2.3,0,0,0,.26,0c-1,.57-2,1.12-3,1.66A3.15,3.15,0,0,0,170.6,216.41Zm5.15-3.13a3.18,3.18,0,0,0,1.72.51,3.27,3.27,0,0,0,.44,0c-.88.56-1.76,1.11-2.65,1.64a3.2,3.2,0,0,0,.53-1.76A2.09,2.09,0,0,0,175.75,213.28Zm4.86-3.26a3.16,3.16,0,0,0,1.67.48,3.07,3.07,0,0,0,.52-.06c-.86.62-1.73,1.21-2.6,1.8a3.17,3.17,0,0,0,.47-1.64A2.72,2.72,0,0,0,180.61,210Zm4.76-3.49A3.15,3.15,0,0,0,187,207a3.31,3.31,0,0,0,.54-.06c-.79.63-1.58,1.24-2.38,1.84a3.17,3.17,0,0,0,.36-1.45A3.25,3.25,0,0,0,185.37,206.53Zm4.58-3.82a3.11,3.11,0,0,0,1.54.41,2.88,2.88,0,0,0,.59-.06q-1.07.94-2.16,1.86a3.08,3.08,0,0,0,0-2.21Zm4.52-3.9a3.18,3.18,0,0,0,1.28.26,2.92,2.92,0,0,0,.73-.09c-.64.63-1.28,1.24-1.94,1.86a3.1,3.1,0,0,0,.15-.91A3,3,0,0,0,194.47,198.81Zm1.28-.73a2.2,2.2,0,1,1,2.2-2.2A2.21,2.21,0,0,1,195.75,198.08Zm1.87-6.43a2.2,2.2,0,1,1,2.2,2.2A2.2,2.2,0,0,1,197.62,191.65Zm4.94-1.64a3.11,3.11,0,0,0,1.18.24,3,3,0,0,0,1-.17c-.57.69-1.14,1.37-1.73,2a2.5,2.5,0,0,0,.05-.47A3.16,3.16,0,0,0,202.56,190Zm3.86-4.7a3.43,3.43,0,0,0,.57.06,3.18,3.18,0,0,0,1.93-.67c-.66.89-1.33,1.78-2,2.65a2.77,2.77,0,0,0,0-.3A3.15,3.15,0,0,0,206.42,185.31Zm3.24-4.89a2.9,2.9,0,0,0,.88.15,3.15,3.15,0,0,0,1.58-.44c-.69,1.05-1.4,2.08-2.13,3.1a3.07,3.07,0,0,0,.2-1.06A3.22,3.22,0,0,0,209.66,180.42Zm3.52-4.86a3.44,3.44,0,0,0,.45.05,3.22,3.22,0,0,0,1.63-.46c-.51.85-1,1.69-1.55,2.53,0-.11,0-.21,0-.31A3.23,3.23,0,0,0,213.18,175.56Zm2.86-5.23a3.43,3.43,0,0,0,.55.06,3.25,3.25,0,0,0,1.58-.43c-.44.82-.88,1.65-1.34,2.46h0A3.14,3.14,0,0,0,216,170.33Zm2.94-5.24a3.19,3.19,0,0,0,1.93-.68c-.38.81-.76,1.63-1.15,2.43A3.16,3.16,0,0,0,219,165.09Zm2.2-5.48a3.26,3.26,0,0,0,2.21-1c-.41,1-.83,2-1.26,3A3.2,3.2,0,0,0,221.18,159.61Zm2.13-5.48a3.18,3.18,0,0,0,2-.79c-.34,1-.69,2-1.06,3A3.21,3.21,0,0,0,223.31,154.13Zm2-5.63a3.19,3.19,0,0,0,1.81-.82c-.23.84-.48,1.68-.74,2.52A3.15,3.15,0,0,0,225.27,148.5Zm1.47-5.79a3.21,3.21,0,0,0,1.87-1.1c-.2.93-.42,1.85-.65,2.76A3.19,3.19,0,0,0,226.74,142.71ZM228,137a3.2,3.2,0,0,0,1.77-1.18c-.17,1-.34,1.95-.53,2.91A3.16,3.16,0,0,0,228,137Zm.82-5.84a3.28,3.28,0,0,0,1.8-1.31c-.12,1-.25,2-.39,3A3.18,3.18,0,0,0,228.81,131.11Zm.65-5.86a3.21,3.21,0,0,0,1.67-1.27c-.07,1-.14,1.93-.22,2.89A3.27,3.27,0,0,0,229.46,125.25Zm.3-5.93a3.25,3.25,0,0,0,1.59-1.47c0,1,0,2-.06,2.92A3.21,3.21,0,0,0,229.76,119.32Zm-29.23-80.5a3.25,3.25,0,0,0-.94-.16,3,3,0,0,0-1,.17,3.23,3.23,0,0,0,.21-1.12,3.1,3.1,0,0,0-.1-.76C199.34,37.57,199.94,38.19,200.53,38.82ZM138.39,4.29a3.11,3.11,0,0,0-1.11.89,3.26,3.26,0,0,0-.95-1.28C137,4,137.7,4.15,138.39,4.29Zm-1.86,2.08a2.2,2.2,0,1,1-2.2-2.2A2.2,2.2,0,0,1,136.53,6.37Zm-3.35-3a3.18,3.18,0,0,0-1.29.93,3.2,3.2,0,0,0-1-1.24C131.67,3.18,132.42,3.29,133.18,3.4Zm-2,2.19a2.2,2.2,0,1,1-2.2-2.2A2.19,2.19,0,0,1,131.15,5.59Zm-3.57-2.87a3.18,3.18,0,0,0-1.28,1.1,3.22,3.22,0,0,0-1.17-1.31C126,2.57,126.76,2.64,127.58,2.72Zm-2,2.48a2.2,2.2,0,1,1-2.2-2.2A2.19,2.19,0,0,1,125.62,5.2Zm-3.56-2.87a3.21,3.21,0,0,0-1.38,1.25,3.19,3.19,0,0,0-1.25-1.35C120.31,2.25,121.19,2.28,122.06,2.33Zm-4.24.44a2.2,2.2,0,1,1-2.2,2.2A2.21,2.21,0,0,1,117.82,2.77Zm-1.56-.57a3.15,3.15,0,0,0-1.36,1.48,3.19,3.19,0,0,0-1.44-1.44C114.39,2.22,115.32,2.2,116.26,2.2Zm-4.21.7a2.2,2.2,0,1,1-2.2,2.2A2.2,2.2,0,0,1,112.05,2.9Zm-1.62-.54A3.18,3.18,0,0,0,109,4.09a3.25,3.25,0,0,0-1.5-1.54Zm-4.29.85a2.2,2.2,0,1,1-2.2,2.2A2.21,2.21,0,0,1,106.14,3.21Zm-1.91-.34a3.18,3.18,0,0,0-1.18,1.74,3.17,3.17,0,0,0-1.74-1.39C102.28,3.09,103.25,3,104.23,2.87ZM100.32,4a2.2,2.2,0,1,1-2.2,2.2A2.21,2.21,0,0,1,100.32,4Zm-1.83-.41a3.17,3.17,0,0,0-1.23,1.76,3.25,3.25,0,0,0-1.7-1.25C96.53,4,97.51,3.79,98.49,3.63ZM94.61,5a2.2,2.2,0,1,1-2.2,2.2A2.2,2.2,0,0,1,94.61,5Zm-2-.24a3.2,3.2,0,0,0-1.08,1.79A3.2,3.2,0,0,0,89.67,5.4C90.63,5.17,91.59,5,92.56,4.74ZM89,6.33a2.2,2.2,0,1,1-2.2,2.2A2.19,2.19,0,0,1,89,6.33ZM87,6.1a3.2,3.2,0,0,0-1.1,2A3.17,3.17,0,0,0,84,6.94C85,6.65,85.94,6.37,87,6.1ZM83.4,7.88a2.2,2.2,0,1,1-2.2,2.2A2.21,2.21,0,0,1,83.4,7.88Zm-.78,5.29-2.09.71a3.11,3.11,0,0,0,.62-1.52A3.23,3.23,0,0,0,82.62,13.17ZM81.13,7.83a3.2,3.2,0,0,0-.89,1.85,3.21,3.21,0,0,0-1.92-.89C79.25,8.46,80.19,8.14,81.13,7.83ZM78,9.75A2.2,2.2,0,1,1,75.8,12,2.21,2.21,0,0,1,78,9.75Zm-2.32,0a3.16,3.16,0,0,0-.83,1.73,3.18,3.18,0,0,0-1.69-.72C74,10.42,74.84,10.09,75.68,9.76Zm-2.88,2a2.2,2.2,0,1,1-1.87,3.34,3.06,3.06,0,0,0-.22-.49,2.33,2.33,0,0,1-.11-.65A2.2,2.2,0,0,1,72.8,11.73Zm-1.73,4.88a3.17,3.17,0,0,0,1.36.48L70.52,18A3.18,3.18,0,0,0,71.07,16.61ZM70.26,12a3.11,3.11,0,0,0-.6,1.42,3.25,3.25,0,0,0-1.44-.49Q69.24,12.46,70.26,12Zm-2.34,1.9A2.21,2.21,0,0,1,69.8,15a2.58,2.58,0,0,0,.21.48,2.08,2.08,0,0,1,.11.66,2.2,2.2,0,1,1-2.2-2.2Zm-2.68.48a3.13,3.13,0,0,0-.51,1.71A3.24,3.24,0,0,0,63,15.61l-.19,0C63.64,15.21,64.43,14.79,65.24,14.39ZM63,16.61a2.2,2.2,0,1,1-2.2,2.2A2.19,2.19,0,0,1,63,16.61Zm-2.58.33a3.19,3.19,0,0,0-.61,1.87v0a3.15,3.15,0,0,0-1.58-.44,2.84,2.84,0,0,0-.42.05C58.72,17.94,59.58,17.44,60.46,16.94Zm-2.19,2.47a2.2,2.2,0,1,1-2.2,2.2A2.21,2.21,0,0,1,58.27,19.41Zm-2.66.43a3.19,3.19,0,0,0-.54,1.77v0a3,3,0,0,0-1.37-.33,3.12,3.12,0,0,0-.44.05C54,20.85,54.82,20.34,55.61,19.84ZM53.7,22.32a2.2,2.2,0,1,1-2.2,2.2A2.21,2.21,0,0,1,53.7,22.32ZM50.93,23a3.07,3.07,0,0,0-.43,1.56,2.2,2.2,0,0,0,0,.36,3.19,3.19,0,0,0-1.41-.34,3.41,3.41,0,0,0-.46.05C49.41,24,50.17,23.49,50.93,23Zm-1.8,2.58a2.2,2.2,0,1,1-2.2,2.2A2.2,2.2,0,0,1,49.13,25.54Zm-2.93.92a3.19,3.19,0,0,0-.27,1.28,4.4,4.4,0,0,0,0,.51,3.06,3.06,0,0,0-1-.18,3,3,0,0,0-1,.18C44.7,27.64,45.45,27.05,46.2,26.46ZM45,29.07a2.2,2.2,0,1,1-2.2,2.2A2.2,2.2,0,0,1,45,29.07Zm-2.79.68A3,3,0,0,0,42,32.28a3,3,0,0,0-2.42-.2C40.41,31.29,41.29,30.51,42.18,29.75Zm-1.67,3.16a2.2,2.2,0,1,1-2.2,2.2A2.21,2.21,0,0,1,40.51,32.91Zm-3,1a3.29,3.29,0,0,0-.23,1.17,3.16,3.16,0,0,0,.24,1.19,3.15,3.15,0,0,0-1.19-.23,3.33,3.33,0,0,0-1.23.24C35.92,35.51,36.73,34.72,37.54,33.94Zm-1.18,3.12a2.2,2.2,0,1,1-2.2,2.2A2.21,2.21,0,0,1,36.36,37.06Zm-3,1.06a3.12,3.12,0,0,0-.22,1.14,3.19,3.19,0,0,0,.25,1.24,3.05,3.05,0,0,0-1-.18,3.11,3.11,0,0,0-1.32.3C31.85,39.77,32.61,38.94,33.38,38.12Zm-1,3.2a2.2,2.2,0,1,1-2.2,2.2A2.21,2.21,0,0,1,32.41,41.32Zm-3,1.28a3.12,3.12,0,0,0-.16.92,3.15,3.15,0,0,0,.41,1.53,3.26,3.26,0,0,0-.95-.16,3.12,3.12,0,0,0-1.54.42C27.86,44.39,28.61,43.49,29.37,42.6Zm-.7,3.29a2.2,2.2,0,1,1-2.2,2.2A2.2,2.2,0,0,1,28.67,45.89ZM25.6,47.26a3.26,3.26,0,0,0-.12.83,3.14,3.14,0,0,0,.43,1.58,3.25,3.25,0,0,0-.77-.1,3.14,3.14,0,0,0-1.58.43C24.23,49.08,24.91,48.16,25.6,47.26Zm-.46,3.3a2.2,2.2,0,1,1-2.2,2.2A2.2,2.2,0,0,1,25.14,50.56ZM22,52.23a3.07,3.07,0,0,0-.05.53,3.16,3.16,0,0,0,.46,1.64,3.8,3.8,0,0,0-.59-.06,3.19,3.19,0,0,0-1.48.38C20.88,53.88,21.43,53.05,22,52.23Zm-.18,3.11a2.2,2.2,0,1,1-2.2,2.2A2.21,2.21,0,0,1,21.82,55.34Zm-3.19,2.11s0,.06,0,.09a3.18,3.18,0,0,0,.67,1.93,2.45,2.45,0,0,0-.38,0,3.19,3.19,0,0,0-1.77.54C17.63,59.12,18.13,58.28,18.63,57.45Zm.28,3a2.2,2.2,0,1,1-2.2,2.2A2.2,2.2,0,0,1,18.91,60.43ZM15.73,62.5s0,.08,0,.13a3.2,3.2,0,0,0,.73,2,2,2,0,0,0-.24,0,3.21,3.21,0,0,0-1.94.67C14.75,64.36,15.23,63.43,15.73,62.5Zm.48,3.12a2.2,2.2,0,1,1-2.2,2.2A2.21,2.21,0,0,1,16.21,65.62ZM13,67.85a3.17,3.17,0,0,0,.72,2,3.21,3.21,0,0,0-2,.76C12.18,69.66,12.59,68.76,13,67.85Zm.8,3a2.2,2.2,0,1,1-2.2,2.2A2.2,2.2,0,0,1,13.82,70.81Zm-3.17,2.41a3.15,3.15,0,0,0,.88,2,3.21,3.21,0,0,0-2,.82C9.89,75.09,10.26,74.15,10.65,73.22Zm1,3a2.2,2.2,0,1,1-2.2,2.2A2.2,2.2,0,0,1,11.64,76.21ZM8.49,78.86a3.21,3.21,0,0,0,1,1.9,3.11,3.11,0,0,0-2,1C7.83,80.8,8.15,79.83,8.49,78.86ZM6.72,84.35a3.21,3.21,0,0,0,1.13,2,3.17,3.17,0,0,0-2,1C6.15,86.34,6.43,85.34,6.72,84.35Zm-1.58,6a3.25,3.25,0,0,0,1.18,1.74A3.19,3.19,0,0,0,4.5,93.2C4.7,92.24,4.91,91.29,5.14,90.34Zm-1.21,5.8a3.23,3.23,0,0,0,1.28,1.73,3.2,3.2,0,0,0-1.78,1.24C3.58,98.11,3.75,97.12,3.93,96.14ZM3,102a3.23,3.23,0,0,0,1.42,1.73A3.15,3.15,0,0,0,2.68,105C2.78,104,2.9,103,3,102Zm-.62,6.1a3.29,3.29,0,0,0,1.38,1.48,3.16,3.16,0,0,0-1.55,1.38C2.27,110,2.33,109,2.4,108.07Zm-.31,8.45c0-.89,0-1.77,0-2.65a3.28,3.28,0,0,0,1.65,1.57,3.18,3.18,0,0,0-1.67,1.62C2.1,116.88,2.09,116.7,2.09,116.52Zm.05,3.27a3.22,3.22,0,0,0,1.6,1.53,3.28,3.28,0,0,0-1.48,1.44Q2.19,121.29,2.14,119.79ZM2.49,126a3.29,3.29,0,0,0,1.42,1.13,3.14,3.14,0,0,0-1.2,1.25C2.63,127.63,2.56,126.83,2.49,126Zm.66,6a3.14,3.14,0,0,0,1.42.91,3.34,3.34,0,0,0-1.09,1.4Q3.3,133.2,3.15,132Zm.9,5.56a3.15,3.15,0,0,0,1.6,1,3.18,3.18,0,0,0-1.09,1.57C4.38,139.32,4.21,138.47,4.05,137.6Zm1.8,8c-.21-.78-.4-1.56-.59-2.34a3.21,3.21,0,0,0,1.61.94A3.11,3.11,0,0,0,5.85,145.64Zm3-1.1a2.2,2.2,0,1,1-2.2,2.2A2.2,2.2,0,0,1,8.84,144.54Zm-2,4.68a3.14,3.14,0,0,0,1.6.67,3.22,3.22,0,0,0-.92,1.52C7.3,150.69,7.07,150,6.85,149.22Zm3.75.82a2.2,2.2,0,1,1-2.2,2.2A2.2,2.2,0,0,1,10.6,150ZM9.46,157c-.28-.73-.54-1.46-.81-2.2a3.3,3.3,0,0,0,1.65.66A3.2,3.2,0,0,0,9.46,157Zm2.25,5.54c-.32-.74-.64-1.48-.94-2.22a3.14,3.14,0,0,0,1.71.56A3.08,3.08,0,0,0,11.71,162.49Zm-1.33-4.85a2.2,2.2,0,1,1,2.2,2.2A2.2,2.2,0,0,1,10.38,157.64Zm4.48,3.1a2.2,2.2,0,1,1-2.2,2.2A2.19,2.19,0,0,1,14.86,160.74Zm-.67,7c-.36-.72-.71-1.45-1.06-2.17a3.19,3.19,0,0,0,1.73.51h0A3.16,3.16,0,0,0,14.19,167.79Zm1,.34a2.2,2.2,0,1,1,2.2,2.2A2.2,2.2,0,0,1,15.15,168.13ZM17,173c-.4-.71-.8-1.42-1.18-2.14a3.15,3.15,0,0,0,1.55.42l.27,0A3.18,3.18,0,0,0,17,173Zm1,.18a2.2,2.2,0,1,1,2.2,2.19A2.2,2.2,0,0,1,18,173.22ZM20,178c-.42-.65-.84-1.31-1.24-2a3.19,3.19,0,0,0,1.41.34,2.58,2.58,0,0,0,.39,0A3.2,3.2,0,0,0,20,178Zm1,.16a2.2,2.2,0,1,1,2.2,2.2A2.2,2.2,0,0,1,21,178.2ZM23.3,183,22,181.18a3.25,3.25,0,0,0,1.13.22,3.5,3.5,0,0,0,.65-.07A3.17,3.17,0,0,0,23.3,183Zm1,.08a2.2,2.2,0,1,1,2.2,2.2A2.21,2.21,0,0,1,24.29,183.08Zm2.8,5c-.5-.63-1-1.29-1.49-1.94a3,3,0,0,0,.89.15,3.36,3.36,0,0,0,.85-.13,3.18,3.18,0,0,0-.31,1.34A3.56,3.56,0,0,0,27.09,188.07Zm3.77,4.51c-.61-.7-1.23-1.41-1.83-2.13a3.21,3.21,0,0,0,1.2.24,3.38,3.38,0,0,0,.9-.14,3.05,3.05,0,0,0-.33,1.38A3.49,3.49,0,0,0,30.86,192.58Zm-.63-2.89a2.2,2.2,0,1,1,2.2-2.2A2.2,2.2,0,0,1,30.23,189.69ZM35,197,33,195a3.2,3.2,0,0,0,1,.17,3,3,0,0,0,1.13-.22,3.09,3.09,0,0,0-.27,1.28A3.34,3.34,0,0,0,35,197Zm-1-2.9a2.2,2.2,0,1,1,2.2-2.2A2.21,2.21,0,0,1,34,194.13Zm3.21,5.13a3.35,3.35,0,0,0,.84.13,3,3,0,0,0,1.09-.21,3.24,3.24,0,0,0-.16.93,3.07,3.07,0,0,0,.19,1C38.5,200.51,37.85,199.89,37.2,199.26Zm.84-.87a2.2,2.2,0,1,1,2.2-2.2A2.21,2.21,0,0,1,38,198.39Zm3.45,4.84a3,3,0,0,0,2.09-.27,3.31,3.31,0,0,0-.14.89,3.22,3.22,0,0,0,.27,1.28C43,204.5,42.22,203.87,41.49,203.23Zm.68-.92a2.2,2.2,0,1,1,2.2-2.2A2.21,2.21,0,0,1,42.17,202.31ZM46,207a3,3,0,0,0,.67.07,3.17,3.17,0,0,0,1.58-.43,3.25,3.25,0,0,0-.11.77,3.12,3.12,0,0,0,.44,1.58C47.68,208.31,46.82,207.65,46,207Zm.67-.92a2.2,2.2,0,1,1,2.2-2.2A2.2,2.2,0,0,1,46.64,206.05Zm2.47,1.33a2.2,2.2,0,1,1,2.2,2.2A2.2,2.2,0,0,1,49.11,207.38Zm1.51,3.12a3.84,3.84,0,0,0,.69.07,3.16,3.16,0,0,0,1.75-.52,3.5,3.5,0,0,0-.07.65,3.13,3.13,0,0,0,.61,1.85C52.59,211.88,51.6,211.2,50.62,210.5Zm5,3.33a3.18,3.18,0,0,0,.62.07,3.12,3.12,0,0,0,1.45-.37,2.08,2.08,0,0,0,0,.23,3.22,3.22,0,0,0,.46,1.63C57.23,214.88,56.4,214.36,55.57,213.83Zm.62-.93a2.2,2.2,0,1,1,2.2-2.2A2.21,2.21,0,0,1,56.19,212.9Zm2.42.86a2.2,2.2,0,1,1,2.2,2.2A2.21,2.21,0,0,1,58.61,213.76ZM60.74,217h.07a3.16,3.16,0,0,0,1.92-.66,2.83,2.83,0,0,0,0,.5,3.2,3.2,0,0,0,.36,1.44C62.26,217.82,61.5,217.39,60.74,217Zm5.77-3.28a3.38,3.38,0,0,0-.63-.07,3.12,3.12,0,0,0-1.92.66,4,4,0,0,0,.05-.5,3.13,3.13,0,0,0-.51-1.71C64.49,212.6,65.49,213.14,66.51,213.67Zm-2.83,3.13a2.2,2.2,0,1,1,2.2,2.2A2.2,2.2,0,0,1,63.68,216.8ZM66.35,220a3.17,3.17,0,0,0,1.71-.83s0,.06,0,.1a3.15,3.15,0,0,0,.59,1.83C67.87,220.69,67.1,220.33,66.35,220Zm2.7-.73a2.2,2.2,0,1,1,2.2,2.2A2.19,2.19,0,0,1,69.05,219.22Zm2.53,3.16a3.16,3.16,0,0,0,2-1v0a3.17,3.17,0,0,0,.88,2.18Q73,223,71.58,222.38Zm3-1a2.2,2.2,0,1,1,2.2,2.2A2.19,2.19,0,0,1,74.58,221.4ZM77,224.57a3.2,3.2,0,0,0,2.19-1.09,3.2,3.2,0,0,0,1.25,2.32C79.28,225.41,78.13,225,77,224.57Zm3.17-1.31a2.2,2.2,0,1,1,2.2,2.2A2.2,2.2,0,0,1,80.16,223.26Zm2.26,3.19a3.12,3.12,0,0,0,2.39-1.17,3.21,3.21,0,0,0,1.8,2.43C85.2,227.32,83.81,226.9,82.42,226.45Zm5.3,1.54.24,0a3.2,3.2,0,0,0,2.55-1.28A3.19,3.19,0,0,0,91.73,229C90.38,228.67,89,228.35,87.72,228Zm3.76-1.53a2.2,2.2,0,1,1,2.2,2.2A2.19,2.19,0,0,1,91.48,226.46Zm2.94,3.1a3.18,3.18,0,0,0,1.9-1.31,3.2,3.2,0,0,0,1.28,1.9C96.53,230,95.48,229.77,94.42,229.56Zm2.82-2a2.2,2.2,0,1,1,2.2,2.2A2.2,2.2,0,0,1,97.24,227.55Zm3.15,3a3.15,3.15,0,0,0,1.77-1.39,3.17,3.17,0,0,0,1.43,1.8C102.52,230.87,101.45,230.74,100.39,230.58Zm2.61-2.33a2.2,2.2,0,1,1,2.2,2.2A2.21,2.21,0,0,1,103,228.25Zm5.12,1.28a3.15,3.15,0,0,0,1.6,2c-1.18-.07-2.35-.16-3.51-.26A3.22,3.22,0,0,0,108.12,229.53Zm90.74-32.93a3.38,3.38,0,0,0,.08-.72,3.29,3.29,0,0,0-.25-1.26,3,3,0,0,0,1.13.22,3,3,0,0,0,.8-.11C200,195.36,199.45,196,198.86,196.6Z"/><path class="cls-1" d="M65.45,95.85c0-.06,0-.11,0-.16A.23.23,0,0,0,65.45,95.85Z"/><path class="cls-2" d="M150.9,141.54c-.2,1.16-.29,2.52-.52,3.94H151a13.37,13.37,0,0,0,.59-1.63,20.33,20.33,0,0,0,.3-2.31S151.61,140.34,150.9,141.54Z"/><path class="cls-2" d="M141.73,143.06a1.33,1.33,0,0,0-.24,1c0,.15-.16,1-.14,1.41h1.33C142.42,144.59,142.12,143.3,141.73,143.06Z"/><path class="cls-1" d="M165.82,83.84c.43,0,.61-.69.83.19a4.25,4.25,0,0,1-.16,2.73c-.47.7.1,1.36-.14,2.23a20.48,20.48,0,0,0,0,4c-.95-.8-1.14-1-1.14-1.83-.35-1,.4-1.25.19-1.88-.31-.94.42-5.41.42-5.41Z"/><path class="cls-1" d="M183,129.16s-5.13,3-5.91,3-.34,0-.6-.2l.1-.72c3.52-2.85,4.8-7.17,5.25-10.83.85-6.81-.05-6.22-.05-6.22a13.21,13.21,0,0,1-1.17.64c0,.35-2.64,4.18-4.12,4.18-.75,0-.34,0-.6-.19,1.52-5.5,3-9.65,3.56-14,.78-6.23-.11-6.18.05-7.19,0,0-1,.73-1.76,1.27a2.73,2.73,0,0,1-1.05,1.18c-.21-.83-.8-1.28-.8-2a15.86,15.86,0,0,0,0-4C173,88.51,170.64,82.22,168,77a42.67,42.67,0,0,0-6.9-7.68s-.62-.8-1.25-.38c.58,2,1.76,4.7,1.76,5.46a15.08,15.08,0,0,1-.38,2.38s-.28-.52-.57-1.13c-2.21-8-8.19-13.73-15.34-17.12a4.73,4.73,0,0,0,.4,1.71c1.17,1.58,3.12,4.23,3.12,5a5,5,0,0,0,.32,1.58l-1.31-1c-2.63-1.93-12.93-13-18.78-13.42-1.13-.07-1.67-.39-2.17,0,.64,1,8.29,9.78,8.29,12.19a1.35,1.35,0,0,0,.5,1.1c-1.25.58-9.06-.46-9.06-.46a5.75,5.75,0,0,1-2.42-.59c-1.37-.76-3.85,0-3.85,0,4.8,5.37,11.68,8.26,17.21,11.38l-5.8.19c-.59,0-1.18.61-1.92.72,3.65,3.43,7.93,5.6,11.87,8.28-1.79.52-4.08.88-4.78,1.19a10,10,0,0,0-1.8,1.25c9.69-.11,13.15,10.88,22.51,11.21,0,0,2.49,2.42,2.22,2.42-1,.54-1.6,0-1.6,0a10.15,10.15,0,0,0-2.21-1.14,27.74,27.74,0,0,0-6.9-1.59l-2.69.75s7.05,4.47,9.08,8c1.71,1.79,3.1,5.23,4.37,7.87.29.65,4.65,3.83,4.65,6a11.65,11.65,0,0,1-.81,2.47s-.42.64-.73,0c-1.32-3.41-3.46-4.89-5.85-7.7-.34-.32-3-1.77-3-1.77s3.23,8.22,3.23,8.95c.77,3.19.47,3.06,0,7.11a41.64,41.64,0,0,1-2,8.06c-1.28-2.9-3.42-5-5.55-7.89a1.43,1.43,0,0,0-1.69,0,8.74,8.74,0,0,1,1.18,2.5c.3.82,0,4.78,0,4.78,0,.76,0,.15,0,.92-.07,1.58-1.52,5.07-3.15,7.87h1a47.31,47.31,0,0,0,2.62-4.72c.74-1.76.7-4.27,1.39-6.51,1.1.83,2.19,4.81,2.27,6.72a18.6,18.6,0,0,1-.87,4.51h1.35a1.39,1.39,0,0,1,.16-.8c.7,0,1.14-2.7,1.31-3.29-.11,1.46,0,3,.7,3.32,0,.28-.27.51-.46.77h3.29c.72-.47,1.41-.95,2.07-1.45a1.63,1.63,0,0,1,1,1.45H164c.81-1.47,1.74-3.36,3-4.11,0,0,.25-.91-.24-1a3.13,3.13,0,0,0-2.2,2.43c-.84.56-1.11,0-1.11,0-.58,0,0-1.08,0-1.08,3.79-5.5,9.9-7.39,15.53-9.84,1-.46,1.05,0,1.05,0-1.92,4.71-6,10.54-10.7,13.64h2.92a4.82,4.82,0,0,0,.51-.38c5.27-4.32,6-9.15,9.86-14.12C182.62,132,183.32,130,183,129.16ZM169.37,94.7c0-2.18,1.18-3.71,1.25-6.82,2.86,1.6,3.33,7.48,3.95,9.75,0,.47.85,4.12.63,4.7-.68.64-1.65,2.63-2.22,3.25-.45-.85,0-9,0-9a6.55,6.55,0,0,0-1.07-.83c-.21.27-.17.77.05,12.2a.76.76,0,0,1-.17.15v0c-.67.82-1.17-.18-1.17-.18-.64-1-.64-2.17-1.25-3.13Zm-7.12-11c0-.76.33,0,.59-.29,0,0-.43-3.28,0-4s.59-4.89.59-4.89c0-.76.52-.65.52-.65a81.5,81.5,0,0,1,4.82,11.09c.41,1,0,5.15,0,5.15,0,.77-.59-.23-.62.54v5.15c-.42,0-.57.2-.61.63h-1.06c-1.52-1.55-2.67-4-4.23-5.57C161.73,89.92,162.25,83.65,162.25,83.65ZM161.73,94c2.33,1,3.75,3.37,5.84,5a28.37,28.37,0,0,1,0,5.22c0,1.49,1.79,4.51,1.79,5.7,0,.84-.19,1.11-1.08,1.83-.77-3-2.4-5.27-3.31-9.19h-.75c-.24.28-.42.51-.2,1.24,1,3.32,3.56,7.26,3.56,9.18,0,.8-.2,1.1-1.07,1.82-1.59-4.37-3.67-8-4.86-12.35,0,0,.53-3,0-4a15.73,15.73,0,0,0-.6-1.65C160.72,96,161.65,95,161.73,94Zm-30-38.5,1.5.51c5.85,3.3,12,9.61,17.47,14.07a1.36,1.36,0,0,1-1,0c-.65-.36-1.45-.77-2.26-1.17-1.37-.67-5.72-3.27-7.62-6.12l-1,.22a26.63,26.63,0,0,0,12.44,9c.39.21,0,1.12,0,1.12-.29.55-.29.78-.61.62-5.76-1-9.88-4.88-13.25-9.47C136.19,61.45,133.44,58.32,131.69,55.49Zm20.72,22s.5,1.36,0,1.74c-.29.34-2.25,0-2.25,0-1.61-1.78-4.09-1.18-6-2.36h2.07l.34,0c.25,0,1.15-.23,1.22-.67C149.1,76.87,150.87,76.86,152.41,77.53Zm-26.64-9.91a1,1,0,0,1-.78-1.08c.41-.05.89.53,1.63.53a62,62,0,0,0,8.7.16,15.07,15.07,0,0,1,2.94.88.28.28,0,0,0,.22,0c.1.1.21.19.29.28l.7,1s-4.36-.08-4.84,1.15a6.2,6.2,0,0,0,3.27.82c.74,0,.44-.18,1.18-.18s.45.18,1.2.18.44-.62.8-.6c1.6,1.63,4.95,2.06,6.6,4.22a35.26,35.26,0,0,1-5,.76c-.74,0-3.57-.41-3.57-.41C135.68,73.1,129.46,69.16,125.77,67.62Zm8.28,10.51h7.53c2.89-.06,11.45,3.23,12.61,4.31,0,0,.43.85,0,1.12-.42.44-1.56,0-1.56,0-.74,0-4.52-2.44-6.86-3l-1.05.19a17.52,17.52,0,0,0,10.35,4.13.73.73,0,0,1,0,1.14c-.57.65-3.77,0-3.77,0A4.56,4.56,0,0,1,150,86C143.75,85.18,139.37,80.66,134.05,78.13Zm25.78,15.81a1.27,1.27,0,0,1-1.65,0c-1.38-1.15-3.8-1.43-5.33-3l-1,.19c2.72,1.75,5.47,3.25,7.4,6.5h-1c-5.94,0-12-7.9-17.17-10.08a6,6,0,0,1,2.15-.89c4.37,0,15.51,4.56,16.58,5C159.83,91.59,160.54,93.37,159.83,93.94ZM150.11,64.5V63.42c5.53,3.52,7.8,9.83,10.92,14.76,0,0,.53,4.12,0,4.75-.15.6-1.08-.39-1.08-.39-1-2.23-.95-5.34-2.89-6.91-.21.26-.16-.16-.16.61,0,1.07,2.06,6.8,3.51,8,0,0,.41,2.3,0,3C152.41,82.41,153.42,72.33,150.11,64.5Zm1.95,37.36a4.37,4.37,0,0,1-1-1.33,15.38,15.38,0,0,1,13,11.32s.15,1.78-.42,1.68c-1.48-1.85-2.58-4.4-4.52-6.73a.88.88,0,0,0-1,.22c2.75,3.09,4.07,6.78,7.69,9.66,0,0,.5.69,0,1.11-.64.58-1.06,0-1.06,0C159.67,114.1,158.7,105,152.06,101.86ZM164.63,125c2.59-7.36,7.13-14.12,11.94-21.18l1.32-1.93a12.89,12.89,0,0,1-.23,4.76c-.25,1-3.55,12.38-3.58,15.12-1.91.36-3.85,2.32-4.8,3.69-.66.79-1.09,0-1.09,0-.37.06-.37-.31,0-1.12,0-.76.22-.27.26-.49l-.66-.21c-.59,1.31-1.33,2.76-2.06,4.26,0,0-.65.69-1.1,0C163.77,126.87,164.74,124.69,164.63,125ZM162,136.12s.28,5.22-.34,6.42c-.42,0-.71.65-1.14.61-.74-2.1,0-6,0-6,0-.76.79-1.59.8-2.36,0,0,.85-4.15.37-5.13a1.39,1.39,0,0,0-1.21,0c.33.46,0,4.74,0,4.74,0,1-1.17,3.14-1.17,4.05,0,0-.38,3.26,0,3.9s.6.34.6,1.11c0,1.11-1,1.35-2.3,2.12-.08-.44,0-.91-.66-1.28-.53-1.71-.48-3.29,0-5.92.51-2.82,2.36-6.35,2.36-8.79a36.3,36.3,0,0,0,0-5.28c-.16-.74-.77-1.75-.94-2.63a7.58,7.58,0,0,0-.57-2.71,2.88,2.88,0,0,1,1.45,1c1.24,2.81,3,5.26,4.21,8,.69,1.11,0,4.08,0,4.08C162.83,132.47,162,135.62,162,136.12Zm5.56.86s-.72.48-1.11,0,0-1.07,0-1.07c0-2.33,2.55-2.18,2.73-5-1.58,1.21-4.06,4.82-5.65,6.46-.29,0,.45-2.28.57-3.27.19-1.52,4.61-5.84,5.05-6.3,2.9-2.91,7.93-5.18,10.14-9,0,.06,1.42-.82,1.42-.82.17.35-.47,2.66-.8,4.29-1.37,1.08-1.8,3.85-2.32,5.39a50.31,50.31,0,0,1-4.17,5.53C172.16,135.15,168.76,134,167.52,137Z"/><path class="cls-1" d="M171.11,151.17c-2.55.39-5.68,1.81-6.79,1.81a2.88,2.88,0,0,1-1.5-.23v-1.41c1.84-3,6.56-3,9.43-4.86h-2.92a14.37,14.37,0,0,1-3.06,1.58,4.77,4.77,0,0,1-2.21,0c-.74.12-.91-.06-.62-.67.18-.27.35-.58.54-.91h-1.8a6.64,6.64,0,0,1,.06,1A23.15,23.15,0,0,1,161,153a20.1,20.1,0,0,0-4.65.59c.57-1.69,2.06-2.94,2.93-4.41l-.17-1c-.59,1.41-3.09,2.9-3.42,4.83-2.57,1.46-6.83,1.93-9.12,4.34l-.42-1.1c3-4.05,8.41-6.65,13-9.67h-3.29a.62.62,0,0,0-.15.33c-.94.73-1.4,0-1.4,0a.73.73,0,0,1-.16-.33h-1.35a17.13,17.13,0,0,1-1,2.79c-.79,1.09-1.15,1.09-1.1,0v-1.68a3.23,3.23,0,0,1,.28-1.11h-.58c-.42,2.66-1.3,5.55-4.24,7.68-.07-1-.49-2.69-.57-3.45-.08-.92.77-2.51,1.78-4.23h-1c-.48.82-1.24,2.32-1.72,3a13.14,13.14,0,0,1-1.93-3h-1.33a19.68,19.68,0,0,1-.16,3.32c0,2.64-6.34,8.25-7.05,9.44-1.26,2.1-2.49,4.82-2.55,6.94a12.85,12.85,0,0,1-3.78,1.47c-.74,0-.64,0-.89-.17.57-.81,1.14-1.35,1.19-5.64.06-5.08-5.94-8.25-10.69-8.25-.44,0-4.59-.12-5.85.62-3.61,2-5.43,4.31-5.43,7.94a8,8,0,0,0,5.35,7.8,4.06,4.06,0,0,1-1.49.15c-1.15,0-6.82-3.44-6.82-6.12,0-.76.76-1.19,1.18-2.31-.49-1.75-1.38-2.24-2.38-3.1,0-.55.6-1.16.6-1.93,0-2.25-3.28-5.47-4.8-6.69-.64-.78-1.65,0-1.65,0-1,1.65-2.45,1.38-2.45,3.33,0,.77,1.19,1.38,1.19,2.14s-.6,1.07-.6,1.84c0,1.18,1.47,1.91,2.38,3.47-1.29.55-1.19,1.15-1.19,2,0,3.9,7.12,1.6,7.12,5.5,0,.77,0,.35-.2.62H101c-1.68-1.08-7.92-3.61-8.41-7a6.63,6.63,0,0,1,.71-3.9c.19-.34-.63-.78-.24-1.4s.08-.64.08-1.4-.36-.43-.31-1.33c.37-1.33-1.41-3.34-3.3-3.34-.51,0-1.94,1.73-2.35,1.9a24.49,24.49,0,0,0-.66,4.25c0,.86.67.6.66,1.08,0,1.41,1.13,2,2.35,3.47-.48-.59-.14.94-.21,1.54s-.78,0-.78,0A28.9,28.9,0,0,1,83,157.66a1.93,1.93,0,0,0-.5-.9c0-.15-1-.7-.65-1.64,0-.76,1.94-1.49,3.49-1.58a2.08,2.08,0,0,0,.63-1.66c-.67-.42-1.18-.59-1.18-1.35s1.14-1.27,1.75-1.93a6.37,6.37,0,0,0,.07-2.12h0a.75.75,0,0,0-.07-.18c-.72-.05-1.16-.2-1.17-.45.56-.56,1.15-1.48,1.78-2.13v-1a6.61,6.61,0,0,0-2.33-1.58c-.37-1.46.63-4-1.52-4-1,0-1.85,1.22-3.81,1.27,0,.72-.64,1.33-.64,2.09s.59.77.59,1.53,0,.35-.2.64H77.7a1.72,1.72,0,0,0-.64,1.65c.64.72,1.19,1.23,1.19,2a.85.85,0,0,1,0,.23h1.11c0-.69-.58-1-.58-1.75s1.78-2,1.78-2.75-.15-.61-.53-.66a1.63,1.63,0,0,1,.36-1.77c1.05.5,2.3-.25,3-.4-.53,1.36-.25,4.42,1.63,3.51,0,0,.85,1,.23,1.7-1.41.7-1.14,1-1.14,1.9a1.43,1.43,0,0,0,0,.22h.1c.1.66.56,1.23.56,1.91s-1.19,1.68-1.19,2.45.15.91.58,1A7.4,7.4,0,0,1,82.93,153a.6.6,0,0,0-.77,0,2.36,2.36,0,0,0-.64.66c.29-1,.71-2.73.71-2.73l-.09-1.51a.28.28,0,0,0,.28-.13c.3-.51.4-1.23,1-1.5a.31.31,0,0,0-.29-.55,2.21,2.21,0,0,0-1,1.27l0-.39,0-.76a.29.29,0,0,0,.19-.27,27.85,27.85,0,0,1,.35-3.28.3.3,0,0,0-.16-.36l0-.06a.3.3,0,0,0-.2-.39.31.31,0,0,0-.39.2c-.54,1.12-.37,2.37-.54,3.57,0,.06,0,.11,0,.17h0a2.57,2.57,0,0,1-.73-1.14.3.3,0,0,0-.38-.21.31.31,0,0,0-.22.38c.14.72.77,1.17,1.15,1.75,0,.67,0,1.7,0,2.48h0c-.48-.27-1-.71-.86-1.32a.31.31,0,0,0-.31-.31.31.31,0,0,0-.31.32,1.83,1.83,0,0,0,1,1.74l.15.09s0,0,0,.07a.3.3,0,0,0,.27.16c0,.5-.08.94-.12,1.27a12.31,12.31,0,0,0-2.75-3.67c.63-.72,1.18-1.22,1.18-2,0,0,0-.05,0-.08H78.21c-.21.6-1.15.91-1.15,1.59,0,1.72,3.56,3.21,3.56,5.81a3.56,3.56,0,0,1-.18,1.54c-1-.85-5.35-5.94-5.76-6.93l-.94-2.18a5.6,5.6,0,0,1,.23-1.79c.08-.13,1.11-.69,1.17-.78.55-.48,3.11-2.28,3.11-3.92,0-.76-.6-.76-.6-1.53,0-2.37,3-.8,3-3.67,0-.88.13-1.48-1.2-2.06v-.77a4.91,4.91,0,0,0,1.79-1.9c-.6-1.41-2.53-2.65-1.8-4.37-.72-.07-1.31-.68-2.06-.68-2.59,0-.5,1.61-2,2.86-.21-.27-.24.2-1,.22,0,0-1-.65-1.6,0-.54,1.18.11,2.24,0,3.07a2.72,2.72,0,0,0-2.24,0,2.64,2.64,0,0,0-.63,2.1c0,.57,1,2,1.25,3.2-.39.32-.88,1.4-1.22,1.43-.5.38,0,1.1,0,1.1.24.16.19,1.72.5,2,.61.64.25,1.74.93,1.48s1.27,0,.94.7.28.73-1,1.38c-1-2.48-3.17-4.45-3.17-7.54,0,0-.3-3.72,0-4.51a9.83,9.83,0,0,0,1.3-2.57l1.48-.93c.47.21,1.31-1,1.31-1a10.92,10.92,0,0,0,.41-2.41c0-4.6-3.82-1.78-4.8-1a2.86,2.86,0,0,0-.11,3.45c-.24.07-.75,1.22-.93,1.33a6.89,6.89,0,0,1-.44-2.28,14.27,14.27,0,0,1,1.71-5.36c.39-.24,1,.27,1.21.18a11.43,11.43,0,0,1,2.5,0,4.91,4.91,0,0,1,1.12-.43c0-5.54,3.55-2,3.55-5.38a3,3,0,0,0-.59-1.65,8.93,8.93,0,0,1,1.75-1.47,3.43,3.43,0,0,0,0-2.34c-.71,0-1.16-.19-1.17-.44.56-.56.56-1.79,1.2-2.5a8.33,8.33,0,0,1-1.25-2h-1c-.64.63-1.13,1.81-1.87,1.81s-.34,0-.6-.19h0l-1.77.93a13,13,0,0,0-.67,1.68,2.74,2.74,0,0,0-3.52,3.63,3.16,3.16,0,0,0-1.29.41c-.12,1.17-.51,2,.72,5a3.6,3.6,0,0,1,.51,1.73,9.84,9.84,0,0,0-1.09,3.19,9,9,0,0,1-1.42-4c-.18-2.3.24-5.24.86-6.25v-1.12c0-1.91,3.36-3.85,4.22-4.74l.86-.39s2-.88,2.59-1.14c.08-1.47,1-2.21,1.17-3.75-.45-.71-1.36-1.64-2-1.64,0,0-1.15-.56-1.88,0-.24.26-.86.15-1.39.69s.19.58-.37,1.13c-.79,1.69-1,3.24-2.55,4.28a6.39,6.39,0,0,1,.36-2.37,35.63,35.63,0,0,1,2.26-4.91l1.25-1.16a11.16,11.16,0,0,1,4.66,3.48h1.14c.75,0,0,.45.79.61.93-.63,1.52-1.85,2.29-2.44a16.8,16.8,0,0,0,2.56,1.84,14.58,14.58,0,0,0,4.39-3c.82-.06,1.72-.06,2.53-.18.74-.52.72-1.42,1.37-1.78V95.88c-.13-.1-4.43-3.74-5.61-3.74s-1.75,1.22-3,1.22c-.75,0-1.93-1.22-2.67-1.22-1.56,0-1.12,1.83-2.68,1.83-.49,0-1.47-1-2.14-.76-1.56.78-.18,1.89-.63,2a12.93,12.93,0,0,1-1.87,0s1.37-2.5,1.64-2.88c.6-.52,3.27-2.87,4.75-3,1.25-.08,2.15.91,2.89.89h2.15c0-.44,0-.94.23-1.21h.79c.25.27.36.62.71.61.64-.65,1.61-1.09,1.85-1.91s.53-2,0-2.29c-1.25-.67-2.17-1.67-3.43-1.9-.9.15-.85,1.22-1.59,1.22s.14-.61-.6-.6H79.5c-.39.88-2.59,3-3.63,3-.74,0-.34.05-.6-.2v-.81c3-3.63,3.35-5.71,7.43-5.71,3.41,0,2.53,1.64,5.49,4.28.91-.11,1.19-1.22,1.93-1.22.29,0,1,.76,1.24,1.79a2.61,2.61,0,0,0,2.28,0c0-.42-.11-.57.63-.57s1.23.56,1.87,1.21h1a5.18,5.18,0,0,0,.91-2.45h.76c.24.28.35.63.7.62.79-.8,1.88-1,1.88-2.13,0-1.72-2.88-1.65-1.81-3.9a2.54,2.54,0,0,0-2-.69c-.74,0-.74.61-1.49.61s-.34.05-.62-.2v-1a3.63,3.63,0,0,1-2.18-.65c-1,.63-1.8,1.83-2.54,1.83s-1.33-1.22-2.08-1.22-2.82,1.22-3.56,1.22c-.52,0-1.75.31-2.08-1,.62-.55,5.68-4.48,7.42-4.48s2.94,1.83,4.75,1.83.4-2,2.49-2.45a2.2,2.2,0,0,0,1.67.62c1.07,0,1.22-.28,2.56-1.84.8.3,1.74,1.23,2.48,1.23s2.38-1.11,2.38-2.14c0-.77-.31-.84-.61-1.31,1.09-.23,2.62-.25,3.56-.9V66.53A20.22,20.22,0,0,0,106.11,65a1.78,1.78,0,0,0,0-2.19,3.34,3.34,0,0,0-2.83,0c-.93.61-2,1.81-2.77,1.81S99.17,64,98.43,64c-2.75,0-1.23,3.06-3.56,3.06A3,3,0,0,1,93,66.22c-2.44.69-6.78,7.57-10.64,7.57-.74,0-.34,0-.59-.17,1.72-2.61,3.39-3.1,5-5.18.31-.55-.3-.92-.32-1.16.86-.87,2-1.48,2.86-2.25.09-.89-.14-4,1.86-3.5V59.19c-2.33-1.35-.4-3.13-2.92-3.13-.56,0-1.78,1.22-2.38,1.22s-.74-.61-1.48-.61c-1.56,0-1.87,2.62-2.18,4.07-.46.78-2.27,1.36-2.27,2.35,0,.77.59.77.59,1.53,0,.31-1.41,1.2-1.87,2l.11,2.19A5.92,5.92,0,0,1,80,72.88c0,.61-.89,5.8-2.38,5.8-.74,0-.34,0-.6-.2V75.82c0-.77.6-.65.6-1.42,0-1.52-1-5.1-3-5.48h-1c-.64.64-.6,1.52-1.26,1.89-.62.66-.54,4.72,0,5.33s1.21,1.58,1.77,2.14v5.1a58.22,58.22,0,0,1-4.56,5.71l-.21-1.65c.08,0,2.39-2.6,2.39-3.56,0-.76-.6-1.07-.6-1.83s.6-1.69.6-2.45c0-1.07-.21-1.34-1.79-2.58-.23-.85.59-1.34.31-2-1.16-2.94-.43-.45-3.36-3H65.82a.75.75,0,0,1-.53.71c.7,3.47-1.88,3-1.88,4.46,0,.76.59,1.06.59,1.83a4.48,4.48,0,0,1-1.19,2.57c.65,1.54,2.1,2.65,1.28,5.48,1,1.63,4.06,3.57,4.06,5.71a11.39,11.39,0,0,1-.81,2.46h-.77c-.77-.54-1-2.62-1.24-3.4.85-.55-.65-1.45-.86-2.57a13.41,13.41,0,0,0-2.31-2.57c-.73-.71-2.87,0-2.87,0a9.57,9.57,0,0,0-.58,4.2A3.77,3.77,0,0,0,60,93.75c.42.4,0,1.48.86,1.4a9.18,9.18,0,0,1,2.53,1.51c1,.91,1.77,1.49,1.77,2.2,0,.27-1.54,7-2.81,9.17-.18-.52-.76-1.07-.76-1.83a4.41,4.41,0,0,1,1.17-2.54v-2.91c-1.28-.35-2.16-.66-2.95-.85A4.39,4.39,0,0,0,61,97.33c0-1-2-1.77-3-2.36,0-.24.62.15.61-.62v-.91c-.62-.4-2.81-1.92-3.85-1.92-2.82,0-1,3-2.67,5.35.41,1.11,1.73,1.19,1.78,2.43-1.12.65-1.55,1.08-1.77,1.91a10.42,10.42,0,0,1,2.36,2.38c-.25.21-.59-.52-.58.24v1.07a2.8,2.8,0,0,1,.92.72c.71.25,1.62.81,1.84.83,1.87.88,2.08,1.22,4.13,3.71a12.46,12.46,0,0,1,.79,5.18c-.48.71-1.25.42-1.1,0-.9-1.57-1-3.56-1.92-5.23-1.1-1.13-1.32-1.78-2.25-2-.19.12-.79-1.47-2.19-1.7-1.23.49-2.61,1.06-2.61,2.26,0,.76.6,1.37.63,2.39.46.56,0,2.51,1.77,2.46s8.78,7.91,8.87,12.78l.44,1.11,0-.09c0,.08,0,.16,0,.25h0a14,14,0,0,0,.67,4c.27.71.19,1.1-.37,1.18a3.09,3.09,0,0,1-1.09-2.07,9.32,9.32,0,0,1,.39-2.24l-.61-1.21c-.82-.32-1.85-.74-1.85-1.71,0-.76.59-.46.59-1.22,0-1.68-3-5.64-4.66-5.8-.09.45-.27.64-.68.6-.74-.07-.34,0-.61-.21,0-1.13-.59-1,0-2.81,0,0-2.1-1-3.41,0-.24.59-.68-.52-.68,2.26a4.55,4.55,0,0,0,.6,2.09c-1.46.91-1.79.92-1.79,2,0,1.8,2.38,2,2.38,3.37,0,.76-.6.76-.6,1.52,0,2.15,2.25,2.06,4.77,2.67,0,0,.49.11,0,.77-.53.25-.87.89-1.2,1.28-.83,1.54,1.8,2.25,2.37,3.05l-.09.06c.23.28,1.43.08,1.56,0,1.31-.5,1.62-.41,1.62-.41,1.95-.41,3.63,2.47,4.89,4.12,0,0,.63,1.51.31,1.84-.53.46-1.08-.55-1.08-.55C63.6,139,62.42,137.28,61,136a6.38,6.38,0,0,0-5,.31,2.44,2.44,0,0,0-.24,1.34,2.71,2.71,0,0,0,.28,1.4H55.9a2.94,2.94,0,0,0,2.81,3c1.11.17,1.45.1,1.45-.07h1.17c.74,0,1.33-.61,2.08-.61,1.25,0,3.45,2.08,5.83,5.11h1.38a27.85,27.85,0,0,0-3.39-4.63c-.81-5.42-3.65-7.38-5-8.35,1-.09,1,.52,1.77.52,1.52,0,1.19-1.53,1.19-2.14,0-3.71-3.87-13.13-4.83-14.43a22.26,22.26,0,0,0-5.23-4.6,3.16,3.16,0,0,1,.12-2c.74-1.15,1.13-1.23,2-.8,1.71,2.43,1.6,5.25,4,7.21.74,0,.48-.6,1-.85.42-3.89-.82-7,0-7.06,1.43.09,1.33-2,1.89-3.16.35-1.3.7-2.6,1.12-3.9a6.94,6.94,0,0,0,.53-2,.3.3,0,0,1,.14-.24c.16-1,.24-2.09-.17-2.48a1,1,0,0,1-.3-.57,32.87,32.87,0,0,1-3.17-2.4s2-1,2.26-2c.19-.77.39,1.64,1.06,2.94.38.39.79.9,1.36.9,1.36,0,2.11-3.69,1.81-5.76v-.08a.93.93,0,0,1,0-.24h0l-.1-.14c-.12-.3-.27-.59-.42-.88l-.08.52c-.44-1.92-2.7-2.29-3-3.77.56-.91.59-.6.59-1.36,0-1.34-1.2-1.17-1.2-3,0-.88,2.27-3.49,0-4.82l1.29-.59c.63-.92.46-.83.34-1.89,0,0,.51-.9,1.23,0,.82-.06,1.15.75,1.07,2.78a23.57,23.57,0,0,1,2,2.38c.49.57-.83,1.54-.83,2.3a1.77,1.77,0,0,0,.8,1.75v1.08a5.29,5.29,0,0,0-1.57,2L68.05,86a3.35,3.35,0,0,1-.19-.65l0,0c.4-.32.66-.76,1-1.11a.3.3,0,0,0,0-.44.29.29,0,0,0-.43,0c-.26.27-.51.57-.77.84a17.57,17.57,0,0,1-.06-1.94.25.25,0,0,0,.17-.1c.35-.45.9-.76,1-1.36a.32.32,0,0,0-.17-.41.31.31,0,0,0-.41.16,1.63,1.63,0,0,1-.58.85c.07-1.33.2-2.43.2-2.43s-.61-.08-.92,1.2a4.4,4.4,0,0,0-.27,2.22A5.19,5.19,0,0,0,66.1,82l0,0a.31.31,0,0,0-.53.33c.31.53.81.92,1,1.56a.31.31,0,0,0,.28.23c0,.31.08.52.08.52a10,10,0,0,0,.53,1.88,4.26,4.26,0,0,1-.9-.68.31.31,0,0,0-.48.4c.27.38.73.52,1.06.84l.14.08,0,.05a.28.28,0,0,0,0,.09.32.32,0,0,0,.39.21.38.38,0,0,0,.12-.1,4.47,4.47,0,0,0,.38.68.26.26,0,0,1,.12.09l0,.07s0,0,0,0v0c.25.47.49.94.72,1.43l.07.14h0c.07.14.15.27.31.16,1.85-1.2,5.78-5.43,5.78-7.17v-4c0-.77-1.17-1.71-1.76-2.66l-.26-1.09c.62-.63,2.47-.32,2.47-.32,0,.23.5.36.66.49s-1.56-.39-2,.31l.23.54a2.56,2.56,0,0,1,1.64-.15,6,6,0,0,1-.11,1.84,17,17,0,0,0-.25,2.55c.25.25.15.21.89.21,2,0,3.86-6.26,4.23-6.66a1.87,1.87,0,0,1,.36.58c1.81,1.09,6.48-2.57,6.48-2.57s2.11-.16-.57,1.24c-1.15.61-4.36,2.39-4.36,2.39l-.52.24a1.71,1.71,0,0,0,.54,2.88,12.36,12.36,0,0,0,2.77.71l-2.1.4c-5.3-1.35-8.11,4.62-10.1,7.71v.83c.26.24.16.2.9.2,2.45,0,4-1.88,5.21-2.67,1.47-1,1.05,1.46,2.17,2.13V89c-.41,0-.56.19-.63.63l-.35-.17h0c-.68-.37-.84-1.22-1.06-1.89a.31.31,0,0,0-.39-.22.32.32,0,0,0-.22.38c.12.35.24.75.4,1.13a4,4,0,0,0-1.87-.42c-3.93,0-7.71,4.58-7.71,7.64,0,.77.84,1.08,1.31,1.31,0,0,.27.07.66.14.28.71,1,1,1.58,1.48a.32.32,0,1,0,.37-.51,11.59,11.59,0,0,1-1.12-.83,6.66,6.66,0,0,0,2.4,0,.26.26,0,0,0,.15,0,3.85,3.85,0,0,0,.92,1.2.32.32,0,0,0,.44,0,.31.31,0,0,0,0-.44,2.84,2.84,0,0,1-.72-.93,8.71,8.71,0,0,0,1.44-.27A3.53,3.53,0,0,1,78,97a8.67,8.67,0,0,1,.88-.06.29.29,0,0,0,.23.12c.27,0,.54,0,.81-.06,0,0,0,.08,0,.11a3.12,3.12,0,0,0,1.7,1.57.31.31,0,0,0,.2-.59A2.68,2.68,0,0,1,80.56,97a8.81,8.81,0,0,1,.89,0c.37,0,.67.35,1.06.3a.33.33,0,0,0,.32-.32.32.32,0,0,0-.32-.31c-.31,0-.53-.23-.82-.27a10.29,10.29,0,0,0-2.22,0,.29.29,0,0,0-.27-.12l-.36,0A1.33,1.33,0,0,1,79.5,96a.31.31,0,0,0,.27-.35.32.32,0,0,0-.35-.27,2.11,2.11,0,0,0-1.33.86.38.38,0,0,0,0,.21,4.08,4.08,0,0,0-.7.11.32.32,0,0,0-.22-.1,5.81,5.81,0,0,0-1.1.07,1.06,1.06,0,0,1-.31,0H75.4a.18.18,0,0,0-.09,0l-.35,0a4.59,4.59,0,0,1,1-.31.31.31,0,1,0-.12-.61,3.71,3.71,0,0,0-1.53.58.3.3,0,0,0-.08.42,5.6,5.6,0,0,1-3.24-.57l2.18-.06c1.15.56.15-2.18,2.45-.9,1.33.74.67-.63,2.14-1.39l.82-.08c.31.31.76.12.76.6.54.24.29.26,1,.26,1.19,0,1.37.67,2.39-.78a1.59,1.59,0,0,1,1.8,0c0,.43.88.44,1.27,1.16s1,.63,2,1.55c-1.34.9-3,1.31-4.35,2.75a3.64,3.64,0,0,0-2.28,1.43c-1-.63-2.11-1.83-2.85-1.83s-1.81,1.46-2.49,2.44c-1.7-.81-5-3.73-5.53-3.89-1.77-.5-2.2,1.76-3.27,3.12a17.68,17.68,0,0,1-.93,2.1c-.54,1.59-.75,2.67-1.17,4.05a19.08,19.08,0,0,0,0,2.61c.12,0,.26-.21.44-.37a2.83,2.83,0,0,1,1.15-1.45l1.48-1.26a3.37,3.37,0,0,1,.85-1.63l.63-.7a4.25,4.25,0,0,1,2.1.78c.54.46.31,1.4.31,1.4-.92-.13-3,1.49-3.43.85a18.88,18.88,0,0,1-1.63,1.56,2.31,2.31,0,0,1-1.14.67A60.82,60.82,0,0,0,63.41,115a38.2,38.2,0,0,0,.26,6.6c0,.76,1.07,2.19,1.4,3.49.44,1.68.9,5.15,1.68,6.89l.22.72v3.63c0,3.26,4,8.75,4.67,9.81.15-.94,1.73-2.56,1.79-3.35.21-.46.82-.33,1.29-2a1.57,1.57,0,0,1,1-.57.31.31,0,0,0-.08-.62,2,2,0,0,0-.7.26c.09-.62.18-1.46.39-2.64h0a4.74,4.74,0,0,0,1.77-1.44.31.31,0,1,0-.53-.32,3.78,3.78,0,0,1-1.14,1c0-.17.06-.33.1-.52,0,0,0,0-.07,0a.26.26,0,0,0,0-.19c-.08-.78-.67-1.31-1-2a.45.45,0,0,1,0-.28.31.31,0,1,0-.62,0c0,.72.59,1.2.91,1.8l0,.11a23.62,23.62,0,0,0-1,3.53,2.34,2.34,0,0,1-.68-1.48.32.32,0,0,0-.32-.3.31.31,0,0,0-.31.31,3.46,3.46,0,0,0,1.18,2.25c0,.28-.07.56-.09.8,0,0-.23.71-.37,1.09l-.07-.38a3.92,3.92,0,0,0-.73-.24c-.74,0-.43-1.07-.7-1.33-1.39-1.09,0-2.06-.07-2.8.22,0,.37-.24.63-.4a1.23,1.23,0,0,0,.22-1c-.58-1-1.37-1.86-1.37-2.62s0-.35.21-.65a3.08,3.08,0,0,0,2.74,0c-1.7-4.08,2.16-2.06,3.19-5.48,1.93,1.39,1.09,1.71,2.17,3.51-.84.83-1.14,1.75-1.78,2.47.64.71,1.78,1.22,1.78,2,0,2-2.05,1.33-3.56,3.53a7.85,7.85,0,0,1,1.19,1.8,13.6,13.6,0,0,1-3,3.5,3.11,3.11,0,0,0-1.38,1.47,3.89,3.89,0,0,0,.56,3c.09.12,1.85,3.32,1.85,3.32l1.71,2.41s2.18,1.79,3,2.42a9.79,9.79,0,0,1,1.19,1.11.75.75,0,0,0,.07.12l.09.09a6.57,6.57,0,0,1,1.22,1.32c.36.65,3.71,5.29,6.06,5.29a5,5,0,0,0,1.89,0c.46-.22-.42-2.71-.24-3.57,0-.19-1.7-1.55-1.4-1.79.54.54,4-.39,3.43.15a6.34,6.34,0,0,0-.81,3.52c0-.05,0-.09,0-.14,2,3.69,3.78,4.69,7,6.76h1.05c.93.59,2.1,1.19,3.26,1.79h1.4c.24-.26.19-.15.19-.92a4.78,4.78,0,0,0-1.5-3.34c-1.55-1.32-1.51-3.88-2.54-5.09-.12-.27-.26-.54-.38-.82.13-.54.63-.92.69-1.5a.32.32,0,0,0-.26-.36.3.3,0,0,0-.35.26,2.31,2.31,0,0,1-.4.78,2.83,2.83,0,0,1-.13-.83l.06-.08.15-.37v-.13l-.09-.46a5.71,5.71,0,0,1,.09-1.8.63.63,0,0,0-.59-.66.62.62,0,0,0-.66.57,7.24,7.24,0,0,0-.06,2.18l0,.15,0,.06h0a.41.41,0,0,0-.07.11,9.58,9.58,0,0,0-1.14-1,.31.31,0,1,0-.36.51,5,5,0,0,1,1.46,1.4h0a12.33,12.33,0,0,0,1,2.79.38.38,0,0,0,.09.15,2.37,2.37,0,0,0-.54,0c-.72-.2-.89-.23-1-.11a.59.59,0,0,0,.06.5c.18,0,.79.15,1.41.19l.29.1a7.57,7.57,0,0,0,.19,1.43,13.9,13.9,0,0,1-3.1-1.14v-1.08c.65-.35,1.16-.52,1.16-1.28,0-1.07-1.13-1.87-2-2.6,0,0-.54-1,.62-1.05.24-.28.2-.48.2-1.25s.31-1.19-1.18-1.92c-.49-1.75,1.29-2.05,1.68-3a4.36,4.36,0,0,1,1.3,1.54,1.84,1.84,0,0,0,1.35.91c0,.45.42.69.42,1.45,0,.35.13.81,1.15,1.05v1.71c-.65.36-.22.53-.22,1.29,0,1.9,1.81,1.72,1.38,1.86.56.64-.29,2-.29,2-.39,0-.25.27-.25,1,0,2.54,5.79,7.58,9.82,7.52.23.12,2.16-.13,2,0a10.74,10.74,0,0,1-2.38,1,8.49,8.49,0,0,1-5.15,0c-1.52-.43-2.76-.27-3.68-.58-1.21-.4-2.84-.69-3.29-.29-.24,1.42-1.17,1.95-1.21,3.59-.17.61-.55.2-.65.64-.45-.34-1.11-.29-1.65-.89-.49-.39-1.49.41-1.49.41a2.46,2.46,0,0,0-.13,2c-.4,0-.55.2-.64.64-.76-.64-1.81-1.95-2.56-1.95a2.35,2.35,0,0,0-1.46,2.07c-.54.4-.7-.07-.7-.07s.23-1-.5-1.16a7.76,7.76,0,0,0-2.36-.28s-.26-.19,0-.79c1,0,.69.36,1.23.37a3.72,3.72,0,0,0,1.14-2.41c1,0,1,.57,1.74.57s1.18-1.76,1.23-2.4c.4,0,.1.56.84.57h1.86a5.11,5.11,0,0,0,.27-1.79H96c1.17,0,.19.56.63.65a25.1,25.1,0,0,1-2.29,1.87,1.52,1.52,0,0,0-.65.19l-.1.05-.07,0,0,0a.24.24,0,0,0-.12,0h-.12a7.12,7.12,0,0,1-1.29-.23.32.32,0,0,0-.36.26.32.32,0,0,0,.26.36,4,4,0,0,0,.76.17,10,10,0,0,0-1.55.66.27.27,0,0,0-.11.28.29.29,0,0,0-.09.22.31.31,0,0,0,.31.31c.31,0,.61-.11.91-.17a1.77,1.77,0,0,0-.15.91.32.32,0,0,0,.31.32.31.31,0,0,0,.31-.31c0-.31,0-.66.24-.86a.33.33,0,0,0,.07-.25c.32-.09.64-.18,1-.29a3.14,3.14,0,0,0,.62-.43v0l0,0a1,1,0,0,1,.21-.09.29.29,0,0,0,.17-.23,6,6,0,0,1,1.11-.7,3.1,3.1,0,0,0,.1,1.21.32.32,0,0,0,.42.16.31.31,0,0,0,.15-.41,6.63,6.63,0,0,1-.05-1.09.39.39,0,0,0,0-.14c1-.47,1.85-.92,1.85-2.34a3.22,3.22,0,0,0-.08-.66h0L98,169.5l.17,0a5.83,5.83,0,0,0-.32-.6h.06a26.39,26.39,0,0,0-4.23-1.27c-.74,0-1.85.21-1.84.15l-1.12.69v0s-1,.92-1.41,1.24c-.54.47-1.16,1.09-1.16,1.09.39-1.56-1.64-2.26-1.64-2.26s2.41.7,3.89-.85l1.48-1.29c-.64-2.19-5-2-7.49-2.23A13.66,13.66,0,0,0,80.14,158a2.37,2.37,0,0,1-.68-1.33s-.19.08-.89-.47a26,26,0,0,0-3.51-1.79,2.52,2.52,0,0,1-1-2.1c-.08-1.16-3.39-5.77-3.43-5.83H69.26a20,20,0,0,1,3.46,5.63c.22.73.23.6,0,.87H71.34c-1.25-1.71-1-4-3.09-4.9a2.73,2.73,0,0,1-1.09,1.23A24.65,24.65,0,0,0,66,146.48h0A4.87,4.87,0,0,0,64.68,145c-.09.45.06.6-.68.6s-1.91-1.83-2-2.76a5.36,5.36,0,0,0-2.11-.27c-.65.63-.61,1.52-1.17,1.81-.56,0-1.15-.62-1.89-.62-.41,0-1.79-.11-1.79,1.53a2.44,2.44,0,0,0,.61,1.15h2a.7.7,0,0,1,.26-1.09,1.58,1.58,0,0,1,1.56.23s.62-1.09,1.24-.93.7.93.7.93l.47.86h.18c.16.39.29.76.37,1a1,1,0,0,0,1.25,0c.6-.46.3-.17.34-.58,0,0,.4-.49.87.12,0,.7.83,1.19.86,1.93l.92,1c.3,0,.67,0,.91,0,0,0,1-1.26,1.1,0a12.9,12.9,0,0,0,1.81,3.58H69.42a10.48,10.48,0,0,0-2-2.15,1.74,1.74,0,0,0,.25-1,.31.31,0,0,0-.62,0,1.31,1.31,0,0,1-.13.62c-.48-.41-.68-.67-.7-.83-.18-.11-.41-.23-.68-.36l-.08.12a3.61,3.61,0,0,0-.53-.33s0,0,0-.05,0-.16,0-.25l0-.19a.31.31,0,0,0-.08-.15l-.14-.22,0,.07c-.21-.22-.25-.53-.48-.73a.31.31,0,0,0-.48.4c.21.18.25.47.44.67l.11.16v0h0v.08a8.66,8.66,0,0,0-1.89-.3.3.3,0,0,0-.31.3.31.31,0,0,0,.3.32,5.93,5.93,0,0,1,2.39.55,7.77,7.77,0,0,1-2,.46.31.31,0,1,0,0,.62,10.15,10.15,0,0,0,2.43-.59,5.44,5.44,0,0,1,1.5,1.46c-.68-.09-1.36-.2-2-.24a.31.31,0,1,0,0,.62c.76,0,1.51.21,2.28.27a.33.33,0,0,0,.24,0c.24.3.5.62.8.93a3.25,3.25,0,0,1,.31,1.52s-1.08,1-1.38.15c0-.72-.62-1.27-.86-1.82-1.63-.72-3.4.47-4.47,0,.14-1.76-1.09-3-3.6-3.07a1.91,1.91,0,0,1,0-2.29c0-.77.58-.57.59-.82a7.07,7.07,0,0,0-1-.9h-2c.51.68,1.18,1.43,1.18,1.9a1.8,1.8,0,0,1-.6,1.39,7.94,7.94,0,0,0,4.19,2.2c.34.78-.51,1.33,0,2.17,1,0,1.6.66,2.34.66s1-.61,1.78-.61.34,0,.62.23a7.4,7.4,0,0,0,1.25,2.81h1c.2-.33,2.14-2.17,3.14-2.17a27.25,27.25,0,0,1,6.82,1.64c1.37.61,2.87,3.35,3.87,4.65.37.5,1.08.64,1.08,1.4s0,.35-.16.61c-.31-.28-5.55-4.28-6.67-4.28-.74,0-1,.61-1.78.61s-1.33-1.22-2.07-1.22-.75.61-1.49.61-1-.61-1.78-.61a2.72,2.72,0,0,0-2.08,2.45c0,1.1,1.13.47,1.79,2.31,0,.59-.6.9-.6,1.66,0,.42.52,1.53,1.48,1.53.75,0,1.34-.61,2.08-.61s.94,0,1.2.2v.81c-.26.25-.6-.48-.6.29v1c.63.66,1.52.66,2.21,1.31,1-.63,2.17-1.24,2.95-1.83.72,1.27.33,2.45,2,2.45,3.86,0,2.74-4.28,5.53-4.28a12.21,12.21,0,0,1,4.37,0,13.53,13.53,0,0,1,2,.84s-.28-.09-1,.45c-.32.42-.46.24-1.79.71-.22.07-.83-.32-1.56-.47-3.34-.7-3.73,1.48-3.9,2.21,0,0-.77,3.1,0,4.15.4,1,1.81.47,3.47,0l1.14-.69c.46-.13.75-.65.91-.56l1-1c.19-.36.72-.34,1-.89,1.28-.85.36-1.17,3.4-1.83a12.3,12.3,0,0,1,2.85.51l1,.14.23.52-.45-.07s.06,0,.08.09l-.25-.12-1-.15v-.06c-1.34-.13-3,.21-2.92,1.68-.46-.33-.67-.72-1.4-.59-2.34.42-1.29,2.73-2.69,2l.06-.11-1,.32c-.28.65-.93,1.85-.93,1.85l-.89.25c-.23-.26-.34-.61-.71-.59-.35.67-.81.59-1.23.63a2.15,2.15,0,0,0,0,1.72c1.56,1,3.63.81,4.17,3.1.47.82,1.07,0,1.07,0,.64-1,1.22-1.85,1.69-2.42A4.5,4.5,0,0,0,93.31,179l1.69-.82c.1-.71,0-1.51.55-1.91.66-.21,1.49.95,2.21.74,1.93-.56,2.13-2.48,2.32-4.38,4,.56,2.77,1.63,6,.88-4.1,1.75-6.19,3.18-10.16,5.16h-.2l-1.54.94c.69,1.18,1.42,3.38,3,3.38.11,0,7-3.67,7.12-3.67.75,0,.34-.05.6.17-.57.81-1.16,2-1.76,3,0,0-.8,1,0,1.69a2.26,2.26,0,0,0,1.69,0c.35-.66.51-.57,1.25-.57,2,0,.91.95,2.47,2.42a.91.91,0,0,0,1,0c0-1.12.49-4.26,2.42-4.26.74,0,.91.53,1.25,1.2.66.74,1.07,0,1.07,0a19.94,19.94,0,0,1,2-5.49,1.07,1.07,0,0,1,1.42,0c1,1.44,2.11,2.62,2.63,4.28,1-.3,1.26-.6,2-.6,1.33,0,3.11,3.63,4,4.38,1.74-1.49,1.86-3,4.52-2.58a9.09,9.09,0,0,1-.55-2.1c0-.77,0-.66.2-.94h.76c.32.74,3.79,3.08,5.28,3.08.74,0,4.45-1.23,4.45-2.75,0-2.91-12.64-7.68-14.25-8.08l7-.18c.29,0,3.31.56,3.31.56.74,0,3.32.09,4.06.09,0,0,3.17,0,3.64,0,1.26-.13,2.86.12,3.85,0a69.51,69.51,0,0,0,10.48-4.34l1.41-1.16c-2.81-.54-10.39,0-10.39,0a11.9,11.9,0,0,1-5.53-1.4c8.75-4.83,20.46-2.82,26.38-12.79C171.51,150.52,171.11,151.17,171.11,151.17Zm-90.24-.44h0l.06,0ZM66.4,116.5l.29-1.56a2.51,2.51,0,0,0,2.06-1.4c0-.77-.15-.61-.55-.66,0,0-.35-.73,0-1.14.4,0,.55-.19.64-.64a1.88,1.88,0,0,0,1.39.6c1.67,0,1.26-1.81,2.16-3a5.77,5.77,0,0,0,2.09,0,5.18,5.18,0,0,0,.56-1c.83-.65.81-.24.81-.24.5.24,0,1.61,0,1.61,0,.76-.57.34-.57,1.1s.59,1.07.59,1.84-1.19,1.68-1.19,2.44.29,1,.59,2c-1.18.72-4,.72-3,3.36-.22.16-1.15.06-1.87.68l-2,.13c-.23.22.6-1.53.6-1.53.28-.4.6-.83.94-1.26a.29.29,0,0,0,.31,0c.71-.32,1.51-.39,2.2-.78a.32.32,0,0,0,.12-.43.31.31,0,0,0-.43-.11,7.09,7.09,0,0,1-1.61.54c.57-.69,1.16-1.37,1.74-2l-.73-1-.56.78a1.8,1.8,0,0,1-.06-1.42.31.31,0,0,0-.53-.33c-.47.74-.1,1.59.14,2.38l-1.45,2a5.91,5.91,0,0,1-.16-1.73.31.31,0,0,0-.62,0,7,7,0,0,0,.24,2.14.27.27,0,0,0,.1.19c-.37.5-.74,1-1.09,1.51A6.2,6.2,0,0,0,66.4,116.5Zm-8,24.08-1-.73c0-.36-.78-2.3-.2-2.64a1.44,1.44,0,0,1,1.87.08A4.49,4.49,0,0,0,58.39,140.58Zm4.39.14a3.54,3.54,0,0,1-2.87,0c-.35-.67-.66-.74-.66-1.5s.31-.83.66-1.51a.84.84,0,0,1,1,0c1.1.32,1.22,1.25,1.83,1.91A.78.78,0,0,1,62.78,140.72Zm-2.47-12.88a.31.31,0,0,0-.41.16,3.88,3.88,0,0,0-.33,1.15c-.56-.67-1.12-1.33-1.6-2a10,10,0,0,1,.65-2.79.31.31,0,1,0-.61-.15,11.2,11.2,0,0,0-.61,2.34,7.28,7.28,0,0,0-1.2-2.13A1.61,1.61,0,0,1,56,124a1,1,0,0,0-.3-.37.31.31,0,0,0-.41.46c.25.3.3.71.56,1a3.87,3.87,0,0,1,.43.57,4.9,4.9,0,0,1-1.36-.52.3.3,0,0,0-.4.17.31.31,0,0,0,.16.41,4.6,4.6,0,0,0,1.33.52l.3.09,0,.08a.28.28,0,0,0,.35.06c.23.58.4,1.19.59,1.77a.3.3,0,0,0,.31.26A7.51,7.51,0,0,0,60,131.45a8.94,8.94,0,0,0-1.79.06.31.31,0,0,0-.23.38.31.31,0,0,0,.37.23,9.91,9.91,0,0,1,1.54-.05H60v0a.3.3,0,0,0,.44,0,.21.21,0,0,0,0-.1l1.13,1s-2.86,1.52-4.74.33c0-.39-.19-.54-.6-.59,0,0-.3-.85,0-1.12,1-.28,1.86-1,1.74-1.28-.72-1.95-3.89-2.07-4.59-2-1-.81-.13-1.52-.13-1.52,0-.77.57-.58.57-1.34,0-2.37-1.77-1.45-3-2.59,1.67-1.83,1.78-.24,1.78-2.45,0-.31-1.49-2.45-.32-3.46l1.32-.16c1.38.31-.35,3.66,1.17,3.66.74,0,1.11.19,1.46-.46.52-.6,1.06,0,1.22.51.36,1.28.75,1.75,2.16,2.87.72.57.08,1.27-.51,2.46-.33.68.38.52.13.72.86,1.12,1.31.83,2.24,1.42-.39.73.31,3.2.31,3.2-.78.08-1.39-.86-1.39-.86-.12-.17-.26-.34-.4-.51a4.67,4.67,0,0,1,.36-1.56A.31.31,0,0,0,60.31,127.84Zm-4-1.5-.15-.14.1,0A1.17,1.17,0,0,0,56.34,126.34ZM53.8,111.12c-.15.42-.84-2.17-.86-2.42s0-.53.86-.93a.8.8,0,0,1,.94.23,5.48,5.48,0,0,0,.93.71A5.35,5.35,0,0,0,53.8,111.12Zm7.79-7.56a9.73,9.73,0,0,0-1.11,2.61l-.45-.89-.41-1s0,0,0,0a10.52,10.52,0,0,0,.44-1.67.31.31,0,0,0-.21-.39.31.31,0,0,0-.38.22,7.16,7.16,0,0,0-.23,1l0,0-.8-1.2s0,0,0-.07a14.14,14.14,0,0,0-.74-2.1.29.29,0,0,0,.26-.17,4.4,4.4,0,0,0,.49-1.47.31.31,0,0,0-.28-.34.31.31,0,0,0-.34.28,3.26,3.26,0,0,1-.36,1.09,6.36,6.36,0,0,1-.19-.62.32.32,0,0,0-.4-.19.31.31,0,0,0-.19.4c.28,1.12.87,2.12,1.14,3.24a5.36,5.36,0,0,0-.53-.28A3.18,3.18,0,0,1,56,101a.32.32,0,0,0-.48.41,5.76,5.76,0,0,0,1.89,1.34l.15.06v0l.31.46a3.16,3.16,0,0,1,1,1.45,13.24,13.24,0,0,0-1.56-1.14.31.31,0,1,0-.4.48c.54.46,1.26.69,1.69,1.28a.32.32,0,0,0,.44,0s0-.07.05-.1c.08.22.16.45.23.72a4.27,4.27,0,0,0,1.07,2.08.39.39,0,0,1-.28-.21c-1.24-1.51-2.4-2.7-4.41-2.95,0-1,.57-1,.57-1.76a3.26,3.26,0,0,0-2.34-1.88v-1.11a1.85,1.85,0,0,0,1.75-1.44c-.6-.55-2-1.36-2.06-2.48,0,0,1.08.56,1.26.24s.2-.21.2-1-.14-.92-.54-1c-.92-.46,0-1.75,0-1.75.4,0,.4.57,1.14.57s.59-.15.64-.57c.4,0,.69.57,1.11.63a7.85,7.85,0,0,0-.56,2.08c0,.76.57,1,.82,1.55.21,0,.36-.17.41-.59h1.1c0,.42.19.57.61.63-.28,1.06-.14,1.76-.57,2.38-.83,1.22.25,1.7,2.34,1.87A2.21,2.21,0,0,1,61.59,103.56Zm1.87-11.29L61.9,93.52c-1.17.54-1.25-1.09-1.25-1.09a5.69,5.69,0,0,1-.22-4.16c.28-.58,2,.91,1.63.34l.7.47s-.16-.08.85.78S64.08,91.65,63.46,92.27Zm9.41-18.09L73,72.43c0-.77,1.14-1.31,1.23-1.76,2,.5,1.76,2.72,2.09,3.19C75.62,74,73.67,73.53,72.87,74.18ZM81.06,72c-.09-.75-1-2.59-1-3.36,0-1.64,1.78-1.94,1.83-5.77,2.68.46,1.6-3.69,2.41-4.3.58-.27.65.6,1.4.6,1.07,0,1.51-1,2.16-1.8h1.08v1c0,.76-.06,1.16.6,1.52v1.07c-.62.65-1.77,1.46-1.77,2.22s.6.46.58.84a22.46,22.46,0,0,0-3.55,2.71c.29.51.78.24.78,1s-.66.93-1,1.59l-2.16,2.31,1.23-3.18A2.28,2.28,0,0,1,84,67.06,5.18,5.18,0,0,1,84.5,66c.13-.24,1.16-1,1.31-1.26s0-.22.16-.46-1.46,1.18-1.17.62c.75-1.47,3-4.16,3.42-4.91a.85.85,0,0,0-.93.08c-.21.22-.65,1-.94,1.33s-.28-1.54-.54-1.25,0,.22-.16.39.29.94.16,1.09c-.34.39-.29,1.3-.78,1.87-.18.2-.45-1.07-.62-.86s0,.32-.24.55.22.35.24.85a16.35,16.35,0,0,1-.94,2.26c-.1.15-.75-1-.85-.86-.41.57-.3.29-.35.38s.8,1,.66,1.26a15.61,15.61,0,0,0-.78,1.79A12.89,12.89,0,0,0,81.06,72Zm12-4.62c.73-.17.49,1,1.23,1,1,0,3.28-2.12,3.65-3a8.22,8.22,0,0,0,2.29.59c1.37,0,2.16-1,3.06-1.79h1.07c-.88,2.46,2.56,1.89,3.37,2.9l-2.55.06c-.25.32-.2.21-.2,1s.29,1,.58,2c-.66.38-.73.7-1.47.7s-1.93-1.22-2.67-1.22c-.45,0-1,.84-1.25,1.8H97.88c0-.42.1-.58-.64-.58-.3,0-1.64,2.47-2.42,2.47s-1.2-1.81-4.49-1.69l2.51-.72a.24.24,0,0,0,.21.16,1.9,1.9,0,0,1,1.34.43.25.25,0,0,0,.26-.43,2.32,2.32,0,0,0-1-.43c.66-.22,1.23-.41,1.86-.66A6,6,0,0,1,97.4,70a.24.24,0,0,0,.29-.2.25.25,0,0,0-.2-.29,3.17,3.17,0,0,0-.87-.14l.41-.21a.39.39,0,0,0,.15,0,7.77,7.77,0,0,0,2.19-.51.32.32,0,0,0,.17-.41.32.32,0,0,0-.42-.16,5.09,5.09,0,0,1-1.81.42s0,0,0,0c.3-.38.36-.87.64-1.27a.25.25,0,1,0-.41-.27c-.36.44-.31,1-.76,1.4a.25.25,0,0,0,0,.14c-.82.2-2.78,1-4.69,1.64a6.31,6.31,0,0,1,.39-.78.26.26,0,0,0-.13-.33.26.26,0,0,0-.33.13,2.6,2.6,0,0,0-.48,1.15s0,0,0,0a23.44,23.44,0,0,1-2.47.73A13.32,13.32,0,0,1,93,67.33ZM90.28,81.46l-.32-.2a3.28,3.28,0,0,1,.43,0c.6.09,1.17.3,1.75.43a.32.32,0,0,0,.11.29,5.82,5.82,0,0,1,.78.71.33.33,0,0,0,.45,0,.3.3,0,0,0,0-.43,4.12,4.12,0,0,1-.48-.45,2.81,2.81,0,0,0,.41,0,.31.31,0,0,0,.31-.31.32.32,0,0,0-.31-.32A4.3,4.3,0,0,1,91.62,81a2.1,2.1,0,0,1,.65-.45.31.31,0,0,0,.27-.35.32.32,0,0,0-.36-.26c-.45,0-.73.45-1.1.67a.28.28,0,0,0-.12.19h0a2.91,2.91,0,0,0-.59-.1,16.51,16.51,0,0,1-1.76-.49,2,2,0,0,1,.5-.12.32.32,0,0,0,0-.63,3.28,3.28,0,0,0-1.31.44,0,0,0,0,0,0,0l-1.19-.44c.74-.13,1-.75,1.78-.75s1,.62,1.78.62c1.37,0,2.16-1,3.1-1.84,1,.64,2.39,1.84,3.13,1.84s.89-.16,1-.6c1,1,1.63,2.15,2.86,3.13,0,.37-.57.68-.62,1.11h-.84c-.75,0,.19-.48-.46-.59-.9,0-1.38,1.57-1,2.4,0,0-.7.65-1.1,0a1.81,1.81,0,0,0-1.55-1.17c-.74,0-.89.15-.93.57,0,0-1.14.54-1.68,0a2.81,2.81,0,0,0-2.14-1.8c-.74,0-.89.16-.93.57-.45.53-.82.15-1.49-.38a10.53,10.53,0,0,1-1.6-2.31,6,6,0,0,0,3.15.92.31.31,0,0,0,.17.36A5.51,5.51,0,0,1,90,82a.3.3,0,0,0,.42-.11A.31.31,0,0,0,90.28,81.46Zm-7.44,3.78c3.71,1.68,1.39,3-.35,2.6C82.15,87.31,80.83,85.16,82.84,85.24ZM69.3,102.86s1-1.16,1.87-1.09,1.28-.09,1.56.47c.39.78-.16,2.27-.39,2.1A7.86,7.86,0,0,0,69.3,102.86Zm.34,22c1.68-1.43,1.84.86,1.84,2l-.59.54c-.44-.48-1.55-1.53-2.71-1.34A2.07,2.07,0,0,1,69.64,124.85Zm.67,2.62c0,.09.1.16.14.22-.14.28-.32,1-.76,1s-.13-.6-.39-.86c0-.24-1,.38-1-.39s-.11-.41-.13-.92C68.54,126.58,69.91,126.74,70.31,127.47Zm-2.85,3.88,0,0c-.09-.59-.25-.76-.3-1.34l.54-.7c-.06-.1,2.28-1.2.36,1.62a3.52,3.52,0,0,0-.6.42v.09ZM92,155.82c0,1-.62,1.09-.62,1.09,0,.77-2.07.38-1.25.31-.93.08-.09.49-2-.07a2.78,2.78,0,0,1-.23-1.56l.08-1.09c.2-1.2.26-1,1-2a1.73,1.73,0,0,1,2.16.19C91.64,153,92.17,152.68,92,155.82Zm-9.82,9.68c-1.21,1-1.33,2.09-2.28,3.36h-1c-.63-.64-.93-1.86-1.42-2.43-.49.57-1.67.57-2.31,1.19,0,0-1.24.82-1.66,0a3.83,3.83,0,0,0-.85-2.47s-1.26-1-3.6-.13c.33-.51.26-.58.26-1.34a2.25,2.25,0,0,0-1-2.17c-.75-.89-.46-1.35-.46-1.35a1.08,1.08,0,0,1,.83-.42,1.7,1.7,0,0,1,1.45,1.19,2.72,2.72,0,0,0,1.1-1.22c1,.63,1.82,1.83,2.56,1.83,1,0,1.28.07,1.17-1a.88.88,0,0,1,1.24-.16c.34.66.55.48.54,1,.26.25-.36.63.38.63s.34-.32,1.08-.32.58.28,1.24.64v.8a3.74,3.74,0,0,1-2.1,1l-.3-.06a.28.28,0,0,0,0-.12,10.75,10.75,0,0,1-1.48-1.61.31.31,0,0,0-.57.23,3.94,3.94,0,0,0,1,1.25,10.57,10.57,0,0,1-2.44-.92.46.46,0,0,0-.63.17.47.47,0,0,0,.17.64c.25.13.51.25.76.36a4.81,4.81,0,0,1-1,.13.31.31,0,0,0-.31.31.32.32,0,0,0,.31.32c.56,0,1.09-.24,1.66-.16a.3.3,0,0,0,.28-.23,15.22,15.22,0,0,0,2.3.59.66.66,0,0,0,.16.12l-.88.4a.31.31,0,0,0-.13.42.32.32,0,0,0,.43.13c.52-.2,1.65-.74,1.74-.78s0,0,.09.05a.32.32,0,0,0,.31-.49,1,1,0,0,0,.06-.27,6.15,6.15,0,0,1,4.08,0S84.16,164.86,82.22,165.5Zm3.67,6.83c-1.09.39-1.73.81-2.34.16a4.57,4.57,0,0,1,.55-3.2l.77-.7a.8.8,0,0,1,.86.39c.16.78,1.64,1,1.56,1.87S86.38,172.16,85.89,172.33Zm47.58-8.23c0-4.36,9.38-10.29,8.87-15.39a4.68,4.68,0,0,1,1.44,1.12c-.07-.06.53,1.16.36,7.89,0,2.33-2.82,5.63-4.86,6.84h-1.06c-.87-.09,0-2.31,0-2.31,1-1.6,3.3-6.86,3.3-6.86-.2-.18-.72,0-.72,0-.45,1.15-4.11,9.62-5.66,11a1.76,1.76,0,0,1-1.67,0C132.67,166.11,133.47,164.1,133.47,164.1Zm-19.56-8.79s.7,2.7.7,2.86c.27-.1.65.74.93.32,0-1-.08-2.26-.08-3.26l3.08-.38a5.77,5.77,0,0,1,2.56,1c-.31.56-1.59,2.29-1.39,3.11.23-.2-.15.79.31.79.66-.78,1.79-2.95,2.28-3.73.72.66,1.74,1.08,2.36,1.74,0,0-1.33,2.72-1.86,2.95l.46.4a29.5,29.5,0,0,0,2.32-2.15l.69.75a4.6,4.6,0,0,1,.16,3c-.5,1-1,.88-2,1.85-1.51.86-2.25,0-2.25,0-.11-1.85-3.2-4.86-4.5-4.86h-1.19s-2.87,1-3.33,1.81h-1.06a14.47,14.47,0,0,0-2.63-3.66C109.51,157.93,111.83,155.39,113.91,155.31Zm8.66,11.7a24,24,0,0,0,3.63-2,8.28,8.28,0,0,1-.51,1.93,12.43,12.43,0,0,1-2.44,1.89,10.34,10.34,0,0,1-2.37.74A19.09,19.09,0,0,0,122.57,167Zm-4.85,2.48h-1.19c-2.33,0-3.26-2.45-3.26-4,0-1.83.89-4,2.67-4a4.71,4.71,0,0,1,5,4.58C121,167.15,118.72,169.49,117.72,169.49Zm-9.53-4.63a10.32,10.32,0,0,1-.77-2.39,10.87,10.87,0,0,1,1.08-3.58c1.2.86,1.88,3.18,3.71,3.5-.75.75-.38,2.71-.38,2.71-.91.62-1.08.11-1.83.11A4.25,4.25,0,0,1,108.19,164.86Zm2.86,3.66a6.72,6.72,0,0,1-2.39-2.15,14.43,14.43,0,0,0,3.38.1c0,.42,0,.89.61,1.25a5.24,5.24,0,0,0,1.87,2.22ZM95.9,181.25a1.65,1.65,0,0,1,0-1.72H97a3.27,3.27,0,0,0,.62,1.72C96.91,182.14,95.9,181.25,95.9,181.25Zm3.67-.79a1.29,1.29,0,0,1-1.67,0c-.35-.66.19-1-.14-1.43.43-.09,0-.06.39-.72.78-.24,1.08.16,1.08.16S100,179.75,99.57,180.46Zm1-1a3.18,3.18,0,0,1-.88-2,1.72,1.72,0,0,1,1.69,0,2.58,2.58,0,0,1,.43,1.47A1.29,1.29,0,0,1,100.54,179.43Zm11-.32a16.33,16.33,0,0,0-2.54,4.4s0,.41-.64-.24c-.29-1.75-1.82-1.51-3.2-1.11,0,0-.47.15-.4-.23a7.7,7.7,0,0,1,.78-1.37,13.6,13.6,0,0,1,4.82-3.71h1A4.79,4.79,0,0,1,111.59,179.11Zm-5.36-2.05c-.37,0-.19-.66-.45-.76s-.29-.53-.57-.24c-.25,0-.25.61-.3,1.33-.4,0-.5-.31-.75-.58l-.68.07c-.24.27.54,1-.39,1.15s-.74-.86-1.08-1.31c2.88-1.59,5.17-1.69,7.57-2.39,1.21-.34,2.49-1.22,3.81-1.74,1.53-1,1.31.44,1.31.44C113.84,174.64,108.49,177.06,106.23,177.06Zm8.46,1.82s-1.3,3.12-1.72,1.47c-.69,0-1.18-.66-.36-1.93a8.73,8.73,0,0,1,2.29-2.34C115.77,176.52,115.92,176.74,114.69,178.88Zm2.18-3.35c0-.39-1.49-.42-1.91-.48.6-1,.39-1.78.75-2.48,0-1,.28-1.51-.23-2a4.89,4.89,0,0,0,2.42.37,2.8,2.8,0,0,1,1.48-.08c.22,0,.34.08.63.43-.21,3.52-.26,3.7.07,4.2A8.28,8.28,0,0,1,116.87,175.53Zm5.18,5a12,12,0,0,1-2.84-3.17c0-.34.59-.65.63-1.08h1a10,10,0,0,1,2.18,2.57,6.07,6.07,0,0,1,.26,1C122.91,179.88,122.45,179.8,122.05,180.49Zm7.21,1.18c-.41,0-.42.24-.67,0l-.57.41c-.23.54-.51.12-.55.84-.4.05-.55.2-.63.64-1.83-1.47-1.51-4.29-3.26-5.71,0,0-.8-1.35-.17-1.59a27.08,27.08,0,0,1,5.85,3.11C128.53,179.69,129.26,181.67,129.26,181.67ZM140,180a3.88,3.88,0,0,1-1.87,1.66,6.29,6.29,0,0,1-2.85,0c-.6-.6,0-1.72,0-1.72a4.57,4.57,0,0,1,2.64-1.31A3.25,3.25,0,0,1,140,180Zm-3-2.21c-1,.23-3.49,2.06-3.86,2.06-.74,0-3.36-2.73-5.25-3.61a47.93,47.93,0,0,0-6.28-2c-.43-.24,0-1.14,0-1.14a13.21,13.21,0,0,1,3.33,0C127.44,173.15,136.37,177.46,137,177.82Zm17.72-9.38c.54.17-.5.89-.5.89-2.21.87-3.09.26-6.19,1.71a45.13,45.13,0,0,1-8.95.28c-.74,0-1.46-.41-2.2-.48-5.19-.51-6.82-.13-6.82-.13s-2.22-.34-2.33-.34c-1.89,0-4.59.83-5.53,1.78-.35,0-.78-.22-1.19-.26,0,0-.22-.79,0-1.12,6.15-2.5,7.57-1.27,11-3.12,1.18-.65,2.74.63,4.07.94.07.27,1.43.7,1.71.7a11,11,0,0,0,3.9.08,2.39,2.39,0,0,0,.86-.15s.44.19.44-.16a.61.61,0,0,0-.61-.62,24.75,24.75,0,0,1-3.64-.53c-.35-.28-1.5-.75-1.47-1.1,1.2-.59,3.52-.29,4.26-.32C145.39,166.34,142.66,167.82,154.73,168.44Zm1.76-8.67A105.49,105.49,0,0,0,144,164c-.83.58-1,0-1,0-.81-.12,0-1.11,0-1.11,2.54-2.72,6.87-4.18,6.87-4.41s0-.33-.4-.29c-1,.09-3.27,1.37-3.59,1.28,1.92-1.32,8.22-4.61,10.74-4.61h1.19a14.51,14.51,0,0,0,5.47-.06,9.9,9.9,0,0,1,2.24-.5,4.28,4.28,0,0,1,2.07,0C164.65,157.74,160.27,158.82,156.49,159.77Z"/></g></g></svg>